<svg xmlns="http://www.w3.org/2000/svg" xmlns:xlink="http://www.w3.org/1999/xlink" width="500" zoomAndPan="magnify" viewBox="0 0 375 374.999991" height="500" preserveAspectRatio="xMidYMid meet" version="1.0"><path fill="#caddff" d="M 260.726562 315.371094 C 215.570312 337.503906 133.378906 320.160156 103.484375 287.222656 C 52.351562 230.886719 63.460938 142.613281 85.550781 112.957031 C 141.75 37.5 196 89.945312 225.449219 97.386719 C 268.894531 108.367188 311.902344 108.601562 318.851562 188.148438 C 323.035156 236.054688 316.925781 287.824219 260.726562 315.371094 " fill-opacity="1" fill-rule="nonzero"/><path fill="#000000" d="M 302.800781 159.574219 C 288.867188 146.355469 281.503906 145.761719 275.53125 132.644531 C 272.175781 125.273438 275.832031 94.089844 245.679688 92.894531 C 241.792969 92.742188 226.839844 93.558594 224.882812 109.191406 C 224.09375 115.492188 224.46875 119.875 224.886719 123.402344 C 225.25 126.449219 225.199219 129.53125 224.667969 132.550781 C 223.890625 137.003906 222.003906 142 217.691406 145.222656 C 217.359375 145.472656 217.648438 145.996094 218.039062 145.847656 C 220.277344 145 223.429688 143.417969 225.679688 140.714844 C 225.878906 140.476562 226.269531 140.644531 226.230469 140.953125 C 226.214844 141.097656 226.195312 141.242188 226.175781 141.390625 C 225.308594 148 214.632812 154.605469 217.617188 167.425781 C 220.605469 180.246094 289.066406 207.671875 300.410156 202.007812 C 311.753906 196.34375 315.632812 171.75 302.800781 159.574219 " fill-opacity="1" fill-rule="nonzero"/><path fill="#5479f7" d="M 292.929688 161.589844 C 292.929688 161.589844 280.289062 150.480469 261.070312 148.207031 C 261.070312 148.207031 227.695312 147.957031 214.292969 160.328125 C 200.894531 172.703125 192.800781 200.476562 193.558594 221.179688 L 292.929688 251.230469 L 292.929688 161.589844 " fill-opacity="1" fill-rule="nonzero"/><path fill="#5479f7" d="M 252.09375 164.75 C 252.09375 164.75 260.058594 166.765625 265.875 162.472656 L 281.550781 208.9375 C 281.550781 208.9375 273.835938 164.972656 292.796875 161.5625 C 292.796875 161.5625 305.933594 169.164062 303.792969 194.652344 C 301.441406 222.675781 297.859375 241.886719 284.585938 243.023438 C 271.3125 244.160156 255.636719 239.109375 252.09375 164.75 " fill-opacity="1" fill-rule="nonzero"/><path fill="#5479f7" d="M 137.867188 169.152344 L 149.054688 162.773438 C 149.371094 162.59375 149.773438 162.695312 149.964844 163.003906 C 152.390625 166.933594 167.292969 190.351562 178.363281 190.640625 C 190.449219 190.957031 205.976562 167.027344 213.414062 161.1875 L 223.3125 193.0625 C 223.3125 193.0625 204.640625 219.277344 170.863281 220.5625 C 152.101562 221.273438 139.003906 175.253906 137.546875 169.914062 C 137.46875 169.617188 137.597656 169.308594 137.867188 169.152344 " fill-opacity="1" fill-rule="nonzero"/><path fill="#caddff" d="M 280.34375 243.683594 C 274.339844 243.683594 270.007812 242.304688 266.597656 239.386719 C 261.859375 235.328125 258.679688 228.164062 256.277344 216.160156 C 254.070312 205.132812 252.460938 189.824219 250.894531 164.972656 C 250.878906 164.71875 251.070312 164.5 251.324219 164.484375 C 251.570312 164.46875 251.792969 164.660156 251.808594 164.914062 C 254.488281 207.394531 257.601562 230.46875 267.195312 238.691406 C 271.214844 242.136719 276.402344 243.296875 284.546875 242.566406 C 284.789062 242.546875 285.019531 242.730469 285.042969 242.980469 C 285.066406 243.234375 284.878906 243.457031 284.625 243.480469 C 283.109375 243.613281 281.6875 243.683594 280.34375 243.683594 " fill-opacity="1" fill-rule="nonzero"/><path fill="#caddff" d="M 284.589844 215.78125 C 284.398438 215.78125 284.222656 215.660156 284.15625 215.46875 L 266.246094 162.800781 C 266.164062 162.5625 266.289062 162.300781 266.53125 162.222656 C 266.769531 162.140625 267.03125 162.269531 267.113281 162.507812 L 285.023438 215.175781 C 285.105469 215.414062 284.976562 215.671875 284.738281 215.753906 C 284.6875 215.769531 284.636719 215.78125 284.589844 215.78125 " fill-opacity="1" fill-rule="nonzero"/><path fill="#caddff" d="M 280.015625 188.753906 C 280.011719 188.753906 280.007812 188.753906 280.003906 188.753906 C 279.753906 188.75 279.550781 188.542969 279.554688 188.289062 C 279.757812 177.152344 281.898438 169.28125 285.910156 164.898438 C 286.082031 164.714844 286.371094 164.699219 286.558594 164.871094 C 286.746094 165.042969 286.757812 165.332031 286.589844 165.519531 C 282.730469 169.730469 280.671875 177.398438 280.472656 188.304688 C 280.46875 188.554688 280.261719 188.753906 280.015625 188.753906 " fill-opacity="1" fill-rule="nonzero"/><path fill="#caddff" d="M 216.824219 197.890625 C 216.570312 197.890625 216.363281 197.6875 216.363281 197.4375 L 216.363281 181.335938 C 216.363281 181.082031 216.570312 180.878906 216.824219 180.878906 C 217.074219 180.878906 217.28125 181.082031 217.28125 181.335938 L 217.28125 197.4375 C 217.28125 197.6875 217.074219 197.890625 216.824219 197.890625 " fill-opacity="1" fill-rule="nonzero"/><path fill="#ffffff" d="M 242.894531 132.644531 C 242.894531 132.644531 243.210938 141.386719 242.84375 147.214844 C 242.675781 149.964844 240.757812 152.289062 238.097656 153.015625 L 234.605469 153.976562 C 232.804688 154.46875 232.625 156.949219 234.339844 157.691406 C 241.097656 160.621094 254.675781 164.367188 270.640625 157.125 C 272.34375 156.351562 272.140625 153.878906 270.332031 153.410156 L 263.449219 151.628906 C 260.890625 150.964844 258.992188 148.816406 258.652344 146.199219 L 256.03125 125.886719 L 242.894531 132.644531 " fill-opacity="1" fill-rule="nonzero"/><path fill="#000000" d="M 243.363281 132.917969 C 243.410156 134.488281 243.628906 142.058594 243.304688 147.246094 C 243.121094 150.179688 241.078125 152.675781 238.222656 153.457031 L 234.726562 154.414062 C 233.960938 154.625 233.648438 155.253906 233.609375 155.773438 C 233.574219 156.289062 233.792969 156.957031 234.523438 157.269531 C 241.144531 160.144531 254.617188 163.890625 270.453125 156.707031 C 271.179688 156.378906 271.390625 155.703125 271.34375 155.183594 C 271.300781 154.671875 270.980469 154.050781 270.214844 153.851562 L 263.332031 152.070312 C 260.578125 151.359375 258.5625 149.074219 258.199219 146.257812 L 255.660156 126.59375 Z M 251.808594 161.765625 C 244.203125 161.765625 238.03125 159.792969 234.15625 158.109375 C 233.195312 157.695312 232.621094 156.75 232.695312 155.707031 C 232.769531 154.664062 233.472656 153.808594 234.484375 153.535156 L 237.980469 152.578125 C 240.457031 151.898438 242.230469 149.730469 242.386719 147.1875 C 242.746094 141.445312 242.4375 132.75 242.4375 132.660156 L 242.425781 132.371094 L 256.402344 125.179688 L 259.109375 146.140625 C 259.425781 148.585938 261.171875 150.566406 263.5625 151.1875 L 270.445312 152.964844 C 271.457031 153.230469 272.167969 154.066406 272.257812 155.105469 C 272.351562 156.148438 271.789062 157.105469 270.828125 157.542969 C 263.933594 160.667969 257.472656 161.765625 251.808594 161.765625 " fill-opacity="1" fill-rule="nonzero"/><path fill="#ffffff" d="M 233.6875 104.21875 C 230.914062 107.152344 229.476562 111.09375 229.484375 115.128906 C 229.488281 117.421875 230.6875 119.632812 231.054688 122.753906 C 232 130.804688 235.414062 137.238281 244.746094 136.601562 C 244.746094 136.601562 255.945312 135.996094 257.316406 124 C 257.316406 124 257.96875 117.953125 255.234375 111.578125 C 253.394531 107.296875 248.191406 98.640625 240.132812 100.464844 C 237.363281 101.089844 235.257812 102.558594 233.6875 104.21875 " fill-opacity="1" fill-rule="nonzero"/><path fill="#000000" d="M 234.019531 104.535156 C 231.378906 107.324219 229.933594 111.085938 229.941406 115.128906 C 229.945312 116.277344 230.261719 117.40625 230.628906 118.714844 C 230.957031 119.875 231.328125 121.191406 231.507812 122.703125 C 232.632812 132.277344 236.953125 136.671875 244.710938 136.148438 C 245.160156 136.121094 255.550781 135.40625 256.859375 123.949219 C 256.863281 123.894531 257.464844 117.941406 254.8125 111.757812 C 253.890625 109.605469 248.84375 98.964844 240.234375 100.910156 C 237.882812 101.445312 235.789062 102.660156 234.019531 104.535156 Z M 243.507812 137.105469 C 236.054688 137.105469 231.710938 132.300781 230.597656 122.8125 C 230.425781 121.371094 230.082031 120.148438 229.75 118.960938 C 229.378906 117.644531 229.027344 116.402344 229.023438 115.132812 C 229.015625 110.851562 230.550781 106.867188 233.351562 103.90625 C 235.253906 101.898438 237.5 100.589844 240.03125 100.019531 C 249.347656 97.910156 254.679688 109.128906 255.65625 111.398438 C 258.40625 117.808594 257.796875 123.800781 257.769531 124.050781 C 256.371094 136.289062 244.886719 137.054688 244.769531 137.0625 C 244.339844 137.089844 243.921875 137.105469 243.507812 137.105469 " fill-opacity="1" fill-rule="nonzero"/><path fill="#000000" d="M 249.558594 101.832031 C 249.558594 101.832031 248.367188 106.015625 241.804688 111.398438 C 237.546875 114.890625 230.132812 115.683594 228.878906 118.53125 C 228.878906 118.53125 224.320312 101.222656 239.066406 99.25 C 253.820312 97.273438 249.558594 101.832031 249.558594 101.832031 " fill-opacity="1" fill-rule="nonzero"/><path fill="#000000" d="M 308.175781 256.027344 C 308.128906 256.027344 308.085938 256.019531 308.042969 256.007812 L 218.78125 229.773438 C 218.539062 229.703125 218.402344 229.445312 218.472656 229.203125 C 218.542969 228.960938 218.800781 228.824219 219.039062 228.894531 L 308.304688 255.128906 C 308.542969 255.199219 308.683594 255.457031 308.613281 255.699219 C 308.554688 255.894531 308.371094 256.027344 308.175781 256.027344 " fill-opacity="1" fill-rule="nonzero"/><path fill="#ffffff" d="M 146.824219 163.316406 C 145.277344 159.964844 143.898438 153.492188 142.328125 151.269531 C 140.757812 149.046875 138.914062 147.121094 135.976562 145.28125 C 134.472656 144.335938 131.394531 142.523438 129.035156 141.894531 C 126.675781 141.261719 127.707031 145.8125 129.824219 146.625 C 131.9375 147.441406 133.566406 148.929688 132.988281 149.328125 C 132.585938 149.605469 131.464844 150.816406 129.304688 150.300781 C 126.886719 149.71875 125.28125 147.445312 125.34375 144.960938 C 125.355469 144.53125 125.398438 144.09375 125.488281 143.667969 C 126.046875 141.078125 124.824219 138.382812 122.386719 137.335938 C 121.230469 136.839844 119.84375 136.589844 118.214844 136.859375 C 115.636719 137.289062 115.019531 151.949219 124.851562 156.671875 C 126.890625 157.648438 135.269531 159.371094 136.996094 161.746094 C 138.71875 164.121094 139.960938 167.476562 139.960938 167.476562 L 146.824219 163.316406 " fill-opacity="1" fill-rule="nonzero"/><path fill="#000000" d="M 119.527344 137.210938 C 119.121094 137.210938 118.707031 137.246094 118.289062 137.3125 C 117.984375 137.363281 117.4375 138.089844 117.179688 139.894531 C 116.527344 144.445312 118.085938 152.914062 125.050781 156.261719 C 125.644531 156.546875 126.859375 156.914062 128.269531 157.339844 C 131.746094 158.394531 136.078125 159.707031 137.363281 161.476562 C 138.71875 163.34375 139.765625 165.757812 140.1875 166.804688 L 146.242188 163.136719 C 145.625 161.707031 145.035156 159.824219 144.460938 158 C 143.648438 155.417969 142.808594 152.746094 141.953125 151.535156 C 140.203125 149.058594 138.34375 147.300781 135.734375 145.667969 C 134.164062 144.683594 131.195312 142.945312 128.914062 142.335938 C 128.390625 142.195312 128.273438 142.40625 128.203125 142.617188 C 127.910156 143.515625 128.710938 145.707031 129.988281 146.199219 C 131.617188 146.828125 133.445312 148.082031 133.558594 149.007812 C 133.589844 149.292969 133.476562 149.546875 133.246094 149.707031 C 133.203125 149.738281 133.152344 149.777344 133.09375 149.828125 C 132.558594 150.253906 131.308594 151.253906 129.195312 150.746094 C 126.632812 150.132812 124.820312 147.695312 124.882812 144.953125 C 124.898438 144.460938 124.949219 143.996094 125.039062 143.574219 C 125.566406 141.132812 124.371094 138.6875 122.203125 137.757812 C 121.355469 137.394531 120.457031 137.210938 119.527344 137.210938 Z M 139.722656 168.15625 L 139.527344 167.636719 C 139.515625 167.601562 138.289062 164.308594 136.625 162.015625 C 135.515625 160.492188 130.996094 159.121094 128 158.214844 C 126.496094 157.761719 125.308594 157.398438 124.65625 157.085938 C 117.25 153.527344 115.582031 144.570312 116.273438 139.761719 C 116.558594 137.753906 117.222656 136.5625 118.140625 136.410156 C 119.695312 136.152344 121.183594 136.324219 122.566406 136.917969 C 125.136719 138.019531 126.554688 140.898438 125.9375 143.769531 C 125.855469 144.132812 125.8125 144.539062 125.800781 144.972656 C 125.746094 147.289062 127.261719 149.339844 129.410156 149.855469 C 131.085938 150.257812 132.019531 149.511719 132.519531 149.113281 C 132.554688 149.085938 132.585938 149.058594 132.617188 149.035156 C 132.417969 148.664062 131.347656 147.703125 129.65625 147.054688 C 127.953125 146.398438 126.867188 143.753906 127.332031 142.332031 C 127.589844 141.546875 128.269531 141.214844 129.152344 141.453125 C 131.546875 142.09375 134.609375 143.882812 136.21875 144.890625 C 138.902344 146.574219 140.902344 148.460938 142.703125 151.007812 C 143.640625 152.335938 144.464844 154.953125 145.335938 157.726562 C 145.953125 159.6875 146.589844 161.714844 147.238281 163.128906 L 147.410156 163.5 L 139.722656 168.15625 " fill-opacity="1" fill-rule="nonzero"/><path fill="#ffffff" d="M 137.050781 163.195312 L 145.488281 158.464844 C 145.859375 158.257812 146.332031 158.398438 146.527344 158.78125 L 149.367188 164.289062 C 149.554688 164.652344 149.417969 165.097656 149.0625 165.296875 L 140.585938 169.980469 C 140.210938 170.183594 139.738281 170.042969 139.546875 169.660156 L 136.75 164.195312 C 136.5625 163.835938 136.699219 163.390625 137.050781 163.195312 " fill-opacity="1" fill-rule="nonzero"/><path fill="#000000" d="M 145.855469 158.828125 C 145.804688 158.828125 145.757812 158.839844 145.710938 158.867188 L 137.277344 163.59375 C 137.136719 163.671875 137.085938 163.84375 137.15625 163.988281 L 139.953125 169.453125 C 139.992188 169.527344 140.054688 169.578125 140.132812 169.601562 C 140.210938 169.625 140.292969 169.617188 140.363281 169.578125 L 148.839844 164.894531 C 148.980469 164.816406 149.035156 164.644531 148.960938 164.5 L 146.121094 158.988281 C 146.085938 158.917969 146.019531 158.863281 145.941406 158.839844 C 145.914062 158.832031 145.886719 158.828125 145.855469 158.828125 Z M 140.222656 170.53125 C 140.101562 170.53125 139.980469 170.515625 139.863281 170.476562 C 139.546875 170.378906 139.289062 170.164062 139.136719 169.871094 L 136.339844 164.402344 C 136.042969 163.820312 136.257812 163.113281 136.828125 162.792969 L 145.261719 158.066406 C 145.550781 157.90625 145.886719 157.867188 146.207031 157.964844 C 146.523438 158.058594 146.785156 158.273438 146.9375 158.570312 L 149.773438 164.078125 C 150.078125 164.667969 149.859375 165.375 149.28125 165.695312 L 140.804688 170.378906 C 140.625 170.480469 140.421875 170.53125 140.222656 170.53125 " fill-opacity="1" fill-rule="nonzero"/><path fill="#000000" d="M 251.285156 132.558594 C 250.402344 132.558594 249.503906 132.4375 248.613281 132.179688 L 239.546875 129.550781 L 239.804688 128.671875 L 248.871094 131.300781 C 252.914062 132.472656 257.179688 130.570312 259.003906 126.78125 L 260.855469 122.941406 L 261.679688 123.339844 L 259.832031 127.175781 C 258.210938 130.539062 254.859375 132.558594 251.285156 132.558594 " fill-opacity="1" fill-rule="nonzero"/><path fill="#caddff" d="M 260.964844 113.523438 C 260.714844 113.523438 260.511719 113.324219 260.507812 113.078125 C 260.503906 112.964844 260.1875 101.597656 254.148438 95.980469 C 251.742188 93.742188 248.722656 92.699219 245.171875 92.871094 C 244.910156 92.890625 244.707031 92.691406 244.695312 92.4375 C 244.679688 92.1875 244.875 91.972656 245.128906 91.960938 C 248.933594 91.769531 252.183594 92.898438 254.773438 95.308594 C 261.101562 101.195312 261.410156 112.574219 261.421875 113.058594 C 261.425781 113.308594 261.226562 113.519531 260.972656 113.523438 C 260.972656 113.523438 260.96875 113.523438 260.964844 113.523438 " fill-opacity="1" fill-rule="nonzero"/><path fill="#5479f7" d="M 236.238281 129.074219 C 236.066406 127.722656 237.046875 126.484375 238.425781 126.3125 C 239.804688 126.136719 241.058594 127.089844 241.230469 128.441406 C 241.402344 129.792969 240.421875 131.03125 239.046875 131.207031 C 237.667969 131.378906 236.410156 130.425781 236.238281 129.074219 " fill-opacity="1" fill-rule="nonzero"/><path fill="#5479f7" d="M 254.40625 119.28125 C 253.925781 115.488281 256.355469 112.058594 259.839844 111.621094 C 260.222656 111.570312 261.636719 111.535156 262.007812 111.558594 C 265.027344 111.761719 266.585938 114.3125 267.011719 117.6875 C 267.472656 121.328125 266.085938 124.730469 262.824219 125.378906 C 262.691406 125.40625 261.722656 125.480469 261.585938 125.480469 C 257.769531 125.492188 254.886719 123.074219 254.40625 119.28125 " fill-opacity="1" fill-rule="nonzero"/><path fill="#99b9ff" d="M 255.910156 119.15625 C 255.503906 115.355469 258.003906 111.976562 261.496094 111.601562 C 264.984375 111.230469 268.144531 114.011719 268.550781 117.808594 C 268.957031 121.609375 266.457031 124.992188 262.964844 125.363281 C 259.476562 125.738281 256.316406 122.957031 255.910156 119.15625 " fill-opacity="1" fill-rule="nonzero"/><path fill="#ffffff" d="M 244.761719 125.230469 C 245.589844 124.140625 251.464844 126.367188 253.867188 127.25 C 256.269531 128.132812 262.464844 136.46875 262.96875 142.023438 C 263.472656 147.578125 261.832031 156.917969 263.097656 160.203125 C 263.097656 160.203125 260.0625 162.980469 254.371094 162.222656 C 254.371094 162.222656 253.742188 156.917969 252.601562 155.023438 C 251.464844 153.132812 244.511719 148.082031 245.015625 144.671875 C 245.398438 142.085938 250.296875 140.15625 252.636719 139.371094 C 253.011719 139.246094 252.988281 138.703125 252.601562 138.617188 C 251.402344 138.347656 249.476562 138.128906 247.417969 138.738281 C 244.003906 139.75 240.96875 138.109375 242.363281 136.214844 C 243.609375 134.515625 248.625 132.710938 252.199219 133.09375 C 252.347656 133.105469 252.398438 132.910156 252.265625 132.847656 C 249.480469 131.625 242.519531 128.179688 244.761719 125.230469 " fill-opacity="1" fill-rule="nonzero"/><path fill="#000000" d="M 254.78125 161.8125 C 259.136719 162.285156 261.792969 160.613281 262.558594 160.046875 C 261.933594 158.003906 262.148438 154.347656 262.375 150.484375 C 262.546875 147.5 262.726562 144.417969 262.511719 142.0625 C 262.023438 136.6875 255.957031 128.507812 253.707031 127.679688 L 253.40625 127.570312 C 252.105469 127.089844 250.140625 126.363281 248.378906 125.878906 C 245.488281 125.085938 245.132812 125.503906 245.128906 125.507812 C 244.808594 125.929688 244.710938 126.367188 244.835938 126.84375 C 245.246094 128.425781 248.09375 130.515625 252.449219 132.433594 C 252.714844 132.550781 252.851562 132.835938 252.777344 133.117188 C 252.703125 133.398438 252.441406 133.578125 252.152344 133.546875 C 248.742188 133.183594 243.875 134.925781 242.730469 136.484375 C 242.421875 136.902344 242.390625 137.277344 242.636719 137.625 C 243.210938 138.441406 245.152344 138.933594 247.285156 138.300781 C 249.421875 137.667969 251.410156 137.878906 252.699219 138.171875 C 253.078125 138.253906 253.34375 138.570312 253.359375 138.953125 C 253.382812 139.34375 253.148438 139.683594 252.78125 139.804688 C 248.445312 141.253906 245.710938 143.097656 245.46875 144.742188 C 245.152344 146.863281 248.296875 149.9375 250.589844 152.179688 C 251.71875 153.285156 252.609375 154.15625 252.996094 154.789062 C 254.007812 156.472656 254.613281 160.566406 254.78125 161.8125 Z M 256.320312 162.8125 C 255.691406 162.8125 255.023438 162.769531 254.308594 162.675781 L 253.957031 162.628906 L 253.914062 162.277344 C 253.910156 162.222656 253.285156 157.050781 252.207031 155.261719 C 251.886719 154.726562 250.988281 153.847656 249.949219 152.832031 C 247.378906 150.320312 244.179688 147.191406 244.5625 144.605469 C 244.960938 141.914062 249.460938 139.972656 252.269531 139.015625 C 251.085938 138.777344 249.371094 138.640625 247.546875 139.175781 C 245.21875 139.867188 242.785156 139.425781 241.886719 138.152344 C 241.414062 137.480469 241.453125 136.679688 241.992188 135.945312 C 243.128906 134.390625 247.085938 132.75 250.621094 132.59375 C 247.914062 131.277344 244.507812 129.230469 243.949219 127.074219 C 243.753906 126.316406 243.902344 125.605469 244.398438 124.953125 C 245.234375 123.855469 248.449219 124.765625 253.722656 126.710938 L 254.023438 126.820312 C 256.5 127.730469 262.898438 136.207031 263.421875 141.980469 C 263.644531 144.40625 263.460938 147.523438 263.289062 150.539062 C 263.066406 154.335938 262.835938 158.261719 263.519531 160.039062 L 263.632812 160.328125 L 263.40625 160.539062 C 263.289062 160.644531 260.859375 162.8125 256.320312 162.8125 " fill-opacity="1" fill-rule="nonzero"/><path fill="#ffffff" d="M 253.261719 158.445312 C 254.695312 158.644531 258.5 158.851562 263.097656 156.492188 C 263.378906 156.347656 263.71875 156.515625 263.78125 156.824219 L 264.847656 162.183594 C 264.886719 162.386719 264.792969 162.59375 264.613281 162.691406 C 263.371094 163.375 258.519531 165.742188 253.601562 164.152344 C 253.429688 164.09375 253.300781 163.9375 253.28125 163.753906 L 252.722656 158.972656 C 252.683594 158.660156 252.949219 158.402344 253.261719 158.445312 " fill-opacity="1" fill-rule="nonzero"/><path fill="#000000" d="M 253.191406 158.898438 C 253.1875 158.898438 253.183594 158.898438 253.183594 158.902344 L 253.734375 163.699219 C 258.441406 165.238281 263.082031 163.011719 264.390625 162.292969 L 263.328125 156.914062 C 258.589844 159.316406 254.664062 159.101562 253.195312 158.898438 C 253.195312 158.898438 253.191406 158.898438 253.191406 158.898438 Z M 257.132812 165.152344 C 255.949219 165.152344 254.710938 164.992188 253.464844 164.589844 C 253.117188 164.476562 252.867188 164.167969 252.824219 163.804688 L 252.265625 159.023438 C 252.234375 158.734375 252.332031 158.453125 252.542969 158.25 C 252.75 158.042969 253.03125 157.953125 253.320312 157.992188 C 254.703125 158.183594 258.402344 158.382812 262.886719 156.085938 C 263.148438 155.953125 263.453125 155.949219 263.71875 156.078125 C 263.984375 156.207031 264.167969 156.445312 264.226562 156.738281 L 265.296875 162.09375 C 265.375 162.496094 265.191406 162.894531 264.832031 163.09375 C 263.785156 163.667969 260.730469 165.152344 257.132812 165.152344 " fill-opacity="1" fill-rule="nonzero"/><path fill="#000000" d="M 173.613281 100.050781 L 173.617188 100.050781 Z M 187.738281 92.710938 C 186.523438 92.710938 185.300781 92.847656 184.089844 93.125 C 179.878906 94.089844 176.296875 96.636719 174 100.292969 C 171.707031 103.949219 170.976562 108.28125 171.945312 112.484375 C 172.910156 116.6875 175.460938 120.269531 179.121094 122.558594 C 186.679688 127.285156 196.679688 124.992188 201.414062 117.445312 C 203.710938 113.789062 204.441406 109.460938 203.472656 105.253906 C 202.503906 101.046875 199.957031 97.472656 196.296875 95.183594 C 193.6875 93.550781 190.742188 92.710938 187.738281 92.710938 Z M 187.679688 125.929688 C 184.582031 125.929688 181.449219 125.09375 178.632812 123.332031 C 174.765625 120.914062 172.074219 117.132812 171.050781 112.6875 C 170.027344 108.246094 170.800781 103.671875 173.226562 99.808594 C 175.648438 95.945312 179.433594 93.253906 183.882812 92.234375 C 188.332031 91.214844 192.914062 91.988281 196.78125 94.40625 C 200.652344 96.828125 203.34375 100.605469 204.367188 105.046875 C 205.386719 109.492188 204.613281 114.066406 202.191406 117.929688 C 198.953125 123.09375 193.375 125.929688 187.679688 125.929688 " fill-opacity="1" fill-rule="nonzero"/><path fill="#000000" d="M 183.714844 99.070312 C 183.632812 99.070312 183.550781 99.082031 183.46875 99.097656 C 183.183594 99.164062 182.945312 99.335938 182.789062 99.582031 L 176.875 109.007812 C 176.722656 109.253906 176.671875 109.542969 176.738281 109.828125 C 176.800781 110.109375 176.976562 110.351562 177.222656 110.503906 L 190.886719 119.054688 C 191.132812 119.207031 191.425781 119.257812 191.707031 119.195312 C 191.992188 119.128906 192.234375 118.957031 192.390625 118.710938 L 198.300781 109.285156 C 198.457031 109.039062 198.503906 108.746094 198.4375 108.464844 C 198.375 108.183594 198.203125 107.941406 197.957031 107.789062 L 184.289062 99.234375 C 184.113281 99.128906 183.914062 99.070312 183.714844 99.070312 Z M 191.460938 120.136719 C 191.089844 120.136719 190.722656 120.03125 190.402344 119.828125 L 176.734375 111.28125 C 176.28125 110.996094 175.964844 110.554688 175.84375 110.03125 C 175.726562 109.511719 175.816406 108.972656 176.101562 108.519531 L 182.011719 99.09375 C 182.601562 98.160156 183.839844 97.875 184.777344 98.460938 L 198.445312 107.011719 C 198.898438 107.296875 199.214844 107.738281 199.332031 108.261719 C 199.453125 108.78125 199.359375 109.316406 199.078125 109.769531 L 193.164062 119.195312 C 192.878906 119.648438 192.4375 119.964844 191.914062 120.085938 C 191.765625 120.117188 191.613281 120.136719 191.460938 120.136719 " fill-opacity="1" fill-rule="nonzero"/><path fill="#000000" d="M 187.316406 110.179688 C 187.140625 110.179688 186.976562 110.078125 186.898438 109.910156 L 183.816406 103.214844 C 183.710938 102.984375 183.8125 102.714844 184.042969 102.609375 C 184.273438 102.503906 184.542969 102.601562 184.652344 102.832031 L 187.730469 109.527344 C 187.839844 109.757812 187.738281 110.03125 187.507812 110.136719 C 187.445312 110.164062 187.378906 110.179688 187.316406 110.179688 " fill-opacity="1" fill-rule="nonzero"/><path fill="#000000" d="M 187.351562 110.203125 C 187.101562 110.203125 186.898438 110 186.894531 109.753906 C 186.890625 109.5 187.089844 109.289062 187.34375 109.285156 L 194.71875 109.132812 C 194.96875 109.117188 195.183594 109.328125 195.1875 109.582031 C 195.195312 109.835938 194.992188 110.042969 194.738281 110.046875 L 187.359375 110.203125 C 187.359375 110.203125 187.355469 110.203125 187.351562 110.203125 " fill-opacity="1" fill-rule="nonzero"/><path fill="#5479f7" d="M 130.25 112.636719 L 119.964844 114.949219 C 118.699219 115.238281 117.714844 116.230469 117.445312 117.5 L 116.074219 123.949219 L 111.371094 118.648438 C 110.566406 117.742188 109.332031 117.34375 108.148438 117.609375 L 98.691406 119.738281 C 96.898438 120.140625 95.117188 119.015625 94.714844 117.226562 L 90.191406 97.179688 C 89.785156 95.390625 90.914062 93.613281 92.703125 93.210938 L 124.265625 86.109375 C 126.058594 85.703125 127.835938 86.828125 128.242188 88.617188 L 132.765625 108.667969 C 133.167969 110.457031 132.042969 112.234375 130.25 112.636719 " fill-opacity="1" fill-rule="nonzero"/><path fill="#000000" d="M 99.597656 100.507812 C 99.390625 100.507812 99.203125 100.363281 99.152344 100.152344 C 99.097656 99.90625 99.25 99.660156 99.496094 99.605469 L 122.1875 94.4375 C 122.433594 94.378906 122.679688 94.535156 122.734375 94.78125 C 122.789062 95.027344 122.636719 95.273438 122.390625 95.328125 L 99.703125 100.496094 C 99.667969 100.503906 99.632812 100.507812 99.597656 100.507812 " fill-opacity="1" fill-rule="nonzero"/><path fill="#000000" d="M 100.261719 105.9375 C 100.054688 105.9375 99.867188 105.796875 99.816406 105.582031 C 99.761719 105.335938 99.914062 105.089844 100.160156 105.035156 L 116.976562 101.207031 C 117.222656 101.148438 117.46875 101.304688 117.523438 101.550781 C 117.582031 101.796875 117.425781 102.042969 117.179688 102.097656 L 100.363281 105.925781 C 100.332031 105.933594 100.296875 105.9375 100.261719 105.9375 " fill-opacity="1" fill-rule="nonzero"/><path fill="#000000" d="M 102.121094 111.238281 C 101.910156 111.238281 101.722656 111.097656 101.671875 110.886719 C 101.617188 110.640625 101.773438 110.394531 102.019531 110.335938 L 124.707031 105.167969 C 124.953125 105.113281 125.199219 105.265625 125.253906 105.515625 C 125.3125 105.761719 125.15625 106.003906 124.910156 106.0625 L 102.222656 111.230469 C 102.1875 111.238281 102.152344 111.238281 102.121094 111.238281 " fill-opacity="1" fill-rule="nonzero"/><path fill="#ffffff" d="M 107.195312 142.167969 L 101.871094 147.359375 C 101.214844 148 100.992188 148.964844 101.300781 149.828125 L 102.867188 154.210938 L 98.074219 152.761719 C 97.253906 152.515625 96.367188 152.734375 95.753906 153.332031 L 90.859375 158.109375 C 89.929688 159.011719 88.445312 158.996094 87.539062 158.070312 L 77.382812 147.691406 C 76.476562 146.765625 76.492188 145.28125 77.421875 144.375 L 93.757812 128.433594 C 94.6875 127.53125 96.171875 127.546875 97.078125 128.472656 L 107.234375 138.851562 C 108.140625 139.777344 108.121094 141.261719 107.195312 142.167969 " fill-opacity="1" fill-rule="nonzero"/><path fill="#99b9ff" d="M 83.941406 146.484375 C 83.824219 146.484375 83.707031 146.4375 83.617188 146.347656 C 83.4375 146.164062 83.441406 145.875 83.625 145.699219 L 94.902344 134.703125 C 95.082031 134.527344 95.371094 134.527344 95.550781 134.707031 C 95.726562 134.890625 95.722656 135.179688 95.542969 135.355469 L 84.261719 146.355469 C 84.175781 146.441406 84.058594 146.484375 83.941406 146.484375 " fill-opacity="1" fill-rule="nonzero"/><path fill="#99b9ff" d="M 86.996094 149.132812 C 86.875 149.132812 86.757812 149.089844 86.667969 148.996094 C 86.492188 148.816406 86.492188 148.527344 86.675781 148.351562 L 97.953125 137.351562 C 98.132812 137.175781 98.421875 137.179688 98.601562 137.359375 C 98.777344 137.542969 98.773438 137.832031 98.59375 138.007812 L 87.316406 149.003906 C 87.226562 149.089844 87.109375 149.132812 86.996094 149.132812 " fill-opacity="1" fill-rule="nonzero"/><path fill="#99b9ff" d="M 89.648438 151.78125 C 89.53125 151.78125 89.410156 151.738281 89.320312 151.644531 C 89.144531 151.464844 89.148438 151.175781 89.328125 151 L 100.605469 140 C 100.789062 139.824219 101.078125 139.828125 101.253906 140.007812 C 101.429688 140.1875 101.425781 140.480469 101.246094 140.65625 L 89.96875 151.652344 C 89.878906 151.738281 89.765625 151.78125 89.648438 151.78125 " fill-opacity="1" fill-rule="nonzero"/><path fill="#000000" d="M 74.574219 204.039062 C 75.40625 212.90625 83.308594 219.445312 92.1875 218.609375 C 96.492188 218.207031 100.378906 216.15625 103.132812 212.835938 C 105.890625 209.511719 107.1875 205.316406 106.78125 201.019531 C 106.378906 196.726562 104.324219 192.84375 100.996094 190.089844 C 97.671875 187.339844 93.46875 186.046875 89.167969 186.449219 C 80.289062 187.28125 73.742188 195.171875 74.574219 204.039062 Z M 90.664062 219.597656 C 81.957031 219.597656 74.492188 212.953125 73.664062 204.125 C 72.78125 194.753906 79.699219 186.414062 89.082031 185.535156 C 98.464844 184.660156 106.816406 191.566406 107.695312 200.933594 C 108.121094 205.472656 106.753906 209.90625 103.839844 213.417969 C 100.925781 216.929688 96.820312 219.097656 92.273438 219.523438 C 91.734375 219.574219 91.199219 219.597656 90.664062 219.597656 " fill-opacity="1" fill-rule="nonzero"/><path fill="#000000" d="M 87.75 193.214844 C 87.742188 193.214844 87.738281 193.214844 87.730469 193.21875 L 86.914062 193.367188 C 86.316406 193.476562 85.78125 193.777344 85.410156 194.207031 C 83.597656 196.320312 84.019531 200.714844 86.4375 204.898438 C 88.863281 209.09375 92.472656 211.65625 95.210938 211.132812 C 95.765625 211.027344 96.28125 210.71875 96.664062 210.265625 L 97.214844 209.621094 C 97.261719 209.570312 97.261719 209.445312 97.21875 209.394531 L 95.011719 206.664062 C 94.917969 206.546875 94.671875 206.425781 94.511719 206.429688 L 94.144531 206.4375 C 93.894531 206.441406 93.621094 206.503906 93.339844 206.621094 C 91.738281 207.277344 90.207031 206.292969 88.660156 203.617188 C 87.117188 200.949219 87.027344 199.140625 88.382812 198.082031 C 88.636719 197.882812 88.867188 197.613281 89.066406 197.285156 L 89.148438 197.148438 C 89.226562 197.019531 89.25 196.742188 89.195312 196.597656 L 87.933594 193.328125 C 87.910156 193.269531 87.820312 193.214844 87.75 193.214844 Z M 94.472656 212.117188 C 91.492188 212.117188 88.054688 209.523438 85.644531 205.355469 C 82.996094 200.773438 82.621094 196.054688 84.714844 193.613281 C 85.222656 193.019531 85.945312 192.613281 86.75 192.464844 L 87.5625 192.316406 C 88.066406 192.222656 88.601562 192.523438 88.789062 193 L 90.050781 196.269531 C 90.207031 196.671875 90.15625 197.253906 89.933594 197.617188 L 89.851562 197.757812 C 89.59375 198.183594 89.289062 198.535156 88.945312 198.800781 C 88.605469 199.070312 87.558594 199.882812 89.453125 203.160156 C 91.351562 206.445312 92.585938 205.941406 92.992188 205.773438 C 93.378906 205.613281 93.761719 205.53125 94.128906 205.523438 L 94.5 205.515625 C 94.9375 205.507812 95.457031 205.757812 95.726562 206.089844 L 97.929688 208.816406 C 98.253906 209.214844 98.242188 209.828125 97.914062 210.214844 L 97.363281 210.859375 C 96.84375 211.46875 96.140625 211.886719 95.382812 212.03125 C 95.085938 212.085938 94.78125 212.117188 94.472656 212.117188 " fill-opacity="1" fill-rule="nonzero"/><path fill="#ffffff" d="M 218.558594 274.570312 L 131.726562 249.371094 C 130.378906 248.980469 129.453125 247.746094 129.453125 246.34375 L 129.453125 186.925781 C 129.453125 184.824219 131.46875 183.3125 133.488281 183.898438 L 220.320312 209.097656 C 221.667969 209.488281 222.394531 210.742188 222.394531 212.140625 L 222.261719 271.167969 C 222.261719 273.269531 220.578125 275.15625 218.558594 274.570312 " fill-opacity="1" fill-rule="nonzero"/><path fill="#000000" d="M 218.6875 274.128906 C 219.535156 274.375 220.1875 274.074219 220.582031 273.777344 C 221.335938 273.210938 221.804688 272.214844 221.804688 271.167969 L 221.9375 212.140625 C 221.9375 210.847656 221.265625 209.847656 220.191406 209.535156 L 133.359375 184.339844 C 132.539062 184.101562 131.671875 184.257812 130.988281 184.769531 C 130.304688 185.285156 129.910156 186.070312 129.910156 186.925781 L 129.910156 246.34375 C 129.910156 247.535156 130.710938 248.597656 131.855469 248.929688 Z M 219.300781 275.136719 C 219.011719 275.136719 218.71875 275.09375 218.429688 275.007812 L 131.601562 249.8125 C 130.066406 249.367188 128.996094 247.941406 128.996094 246.34375 L 128.996094 186.925781 C 128.996094 185.777344 129.519531 184.726562 130.4375 184.039062 C 131.355469 183.351562 132.515625 183.140625 133.617188 183.460938 L 220.445312 208.660156 C 221.910156 209.082031 222.851562 210.449219 222.851562 212.140625 L 222.71875 271.171875 C 222.71875 272.496094 222.113281 273.773438 221.132812 274.507812 C 220.582031 274.921875 219.949219 275.136719 219.300781 275.136719 " fill-opacity="1" fill-rule="nonzero"/><path fill="#000000" d="M 220.320312 209.097656 L 219.507812 208.863281 L 219.507812 274.671875 C 221.164062 274.636719 222.59375 273.308594 222.59375 271.542969 L 222.59375 212.121094 C 222.59375 210.722656 221.667969 209.488281 220.320312 209.097656 " fill-opacity="1" fill-rule="nonzero"/><path fill="#99b9ff" d="M 180.964844 278.191406 L 180.964844 230.617188 C 180.964844 228.242188 179.40625 226.152344 177.128906 225.472656 L 164.421875 221.683594 C 162.199219 221.023438 159.96875 222.683594 159.96875 224.996094 L 159.96875 284.027344 C 159.96875 285.402344 160.871094 286.609375 162.1875 287 L 179.894531 292.28125 C 180.585938 292.488281 181.328125 292.449219 181.996094 292.167969 L 197.371094 285.664062 C 198.433594 285.214844 198.363281 283.6875 197.261719 283.339844 L 180.964844 278.191406 " fill-opacity="1" fill-rule="nonzero"/><path fill="#caddff" d="M 184.347656 210.273438 L 161.875 203.550781 C 161.570312 203.460938 161.363281 203.179688 161.363281 202.863281 L 161.363281 200.902344 C 161.363281 200.414062 161.835938 200.0625 162.304688 200.203125 L 184.148438 206.734375 C 184.621094 206.878906 184.945312 207.3125 184.945312 207.808594 L 184.945312 209.832031 C 184.945312 210.140625 184.644531 210.363281 184.347656 210.273438 " fill-opacity="1" fill-rule="nonzero"/><path fill="#caddff" d="M 181.429688 289.878906 C 181.179688 289.878906 180.972656 289.675781 180.972656 289.421875 L 180.972656 276.503906 C 180.972656 276.25 181.179688 276.042969 181.429688 276.042969 C 181.683594 276.042969 181.890625 276.25 181.890625 276.503906 L 181.890625 289.421875 C 181.890625 289.675781 181.683594 289.878906 181.429688 289.878906 " fill-opacity="1" fill-rule="nonzero"/><path fill="#5479f7" d="M 136.746094 274.46875 C 136.746094 282.207031 124.394531 300.808594 121.4375 305.152344 C 121.132812 305.597656 120.476562 305.597656 120.171875 305.152344 C 118.054688 302.039062 111.121094 291.621094 107.351562 283.117188 C 105.859375 279.742188 104.863281 276.667969 104.863281 274.46875 C 104.863281 265.679688 112 258.546875 120.804688 258.546875 C 129.609375 258.546875 136.746094 265.679688 136.746094 274.46875 " fill-opacity="1" fill-rule="nonzero"/><path fill="#ffffff" d="M 128.09375 274.46875 C 128.09375 278.488281 124.832031 281.75 120.804688 281.75 C 116.777344 281.75 113.515625 278.488281 113.515625 274.46875 C 113.515625 270.449219 116.777344 267.191406 120.804688 267.191406 C 124.832031 267.191406 128.09375 270.449219 128.09375 274.46875 " fill-opacity="1" fill-rule="nonzero"/><path fill="#000000" d="M 122.226562 281.363281 C 120.566406 281.363281 118.894531 280.832031 117.484375 279.738281 C 115.847656 278.472656 114.804688 276.644531 114.546875 274.59375 C 114.515625 274.34375 114.695312 274.117188 114.945312 274.082031 C 115.195312 274.054688 115.425781 274.230469 115.457031 274.480469 C 115.683594 276.289062 116.605469 277.898438 118.046875 279.015625 C 121.019531 281.324219 125.320312 280.785156 127.632812 277.8125 C 128.75 276.371094 129.242188 274.585938 129.011719 272.777344 C 128.785156 270.96875 127.867188 269.359375 126.425781 268.238281 C 125.277344 267.351562 123.910156 266.859375 122.464844 266.808594 C 122.214844 266.800781 122.015625 266.589844 122.023438 266.335938 C 122.03125 266.085938 122.242188 265.886719 122.496094 265.894531 C 124.136719 265.949219 125.6875 266.511719 126.984375 267.519531 C 128.621094 268.785156 129.664062 270.609375 129.921875 272.660156 C 130.179688 274.710938 129.625 276.738281 128.355469 278.371094 C 126.832031 280.335938 124.539062 281.363281 122.226562 281.363281 " fill-opacity="1" fill-rule="nonzero"/><path fill="#99b9ff" d="M 274.339844 102.097656 C 274.253906 102.097656 274.171875 102.074219 274.097656 102.027344 C 273.882812 101.890625 273.816406 101.609375 273.953125 101.398438 L 282.707031 87.484375 C 282.84375 87.269531 283.128906 87.207031 283.34375 87.339844 C 283.554688 87.476562 283.621094 87.757812 283.484375 87.972656 L 274.726562 101.882812 C 274.640625 102.019531 274.492188 102.097656 274.339844 102.097656 " fill-opacity="1" fill-rule="nonzero"/><path fill="#99b9ff" d="M 273.542969 113.226562 C 273.414062 113.226562 273.28125 113.167969 273.191406 113.058594 C 273.03125 112.863281 273.058594 112.574219 273.253906 112.417969 L 296.050781 93.648438 C 296.246094 93.488281 296.535156 93.515625 296.695312 93.710938 C 296.859375 93.90625 296.832031 94.191406 296.636719 94.355469 L 273.835938 113.121094 C 273.75 113.191406 273.648438 113.226562 273.542969 113.226562 " fill-opacity="1" fill-rule="nonzero"/><path fill="#99b9ff" d="M 276.726562 117.601562 C 276.539062 117.601562 276.359375 117.480469 276.292969 117.292969 C 276.210938 117.054688 276.339844 116.792969 276.578125 116.710938 L 288.121094 112.734375 C 288.359375 112.652344 288.621094 112.78125 288.703125 113.019531 C 288.785156 113.257812 288.660156 113.515625 288.417969 113.601562 L 276.878906 117.574219 C 276.828125 117.59375 276.777344 117.601562 276.726562 117.601562 " fill-opacity="1" fill-rule="nonzero"/><path fill="#000000" d="M 145.574219 115.796875 C 144.503906 115.796875 143.636719 116.664062 143.636719 117.730469 C 143.636719 118.796875 144.503906 119.664062 145.574219 119.664062 C 146.640625 119.664062 147.511719 118.796875 147.511719 117.730469 C 147.511719 116.664062 146.640625 115.796875 145.574219 115.796875 Z M 145.574219 120.582031 C 144 120.582031 142.71875 119.304688 142.71875 117.730469 C 142.71875 116.160156 144 114.882812 145.574219 114.882812 C 147.148438 114.882812 148.425781 116.160156 148.425781 117.730469 C 148.425781 119.304688 147.148438 120.582031 145.574219 120.582031 " fill-opacity="1" fill-rule="nonzero"/><path fill="#000000" d="M 157.214844 125.929688 C 156.558594 125.929688 156.023438 126.464844 156.023438 127.121094 C 156.023438 127.777344 156.558594 128.3125 157.214844 128.3125 C 157.871094 128.3125 158.40625 127.777344 158.40625 127.121094 C 158.40625 126.464844 157.871094 125.929688 157.214844 125.929688 Z M 157.214844 129.226562 C 156.054688 129.226562 155.109375 128.28125 155.109375 127.121094 C 155.109375 125.960938 156.054688 125.015625 157.214844 125.015625 C 158.378906 125.015625 159.324219 125.960938 159.324219 127.121094 C 159.324219 128.28125 158.378906 129.226562 157.214844 129.226562 " fill-opacity="1" fill-rule="nonzero"/><path fill="#000000" d="M 93.855469 247.292969 C 89.878906 247.292969 86.46875 244.257812 86.089844 240.222656 C 85.6875 235.945312 88.847656 232.136719 93.132812 231.734375 C 97.421875 231.335938 101.234375 234.488281 101.636719 238.769531 C 101.746094 239.972656 101.589844 241.148438 101.160156 242.269531 C 101.070312 242.503906 100.804688 242.625 100.566406 242.535156 C 100.332031 242.441406 100.214844 242.179688 100.304688 241.945312 C 100.679688 240.953125 100.820312 239.914062 100.722656 238.855469 C 100.367188 235.074219 97 232.292969 93.21875 232.644531 C 89.4375 233 86.648438 236.363281 87.003906 240.136719 C 87.359375 243.914062 90.726562 246.699219 94.507812 246.34375 C 95.433594 246.257812 96.3125 245.992188 97.125 245.558594 C 97.347656 245.4375 97.625 245.519531 97.746094 245.746094 C 97.867188 245.964844 97.78125 246.242188 97.558594 246.363281 C 96.640625 246.855469 95.640625 247.15625 94.589844 247.257812 C 94.34375 247.277344 94.101562 247.292969 93.855469 247.292969 " fill-opacity="1" fill-rule="nonzero"/><path fill="#99b9ff" d="M 111.738281 222.476562 C 111.738281 220.5 113.34375 218.898438 115.320312 218.898438 C 117.300781 218.898438 118.90625 220.5 118.90625 222.476562 C 118.90625 224.453125 117.300781 226.054688 115.320312 226.054688 C 113.34375 226.054688 111.738281 224.453125 111.738281 222.476562 " fill-opacity="1" fill-rule="nonzero"/><path fill="#99b9ff" d="M 235.332031 309.128906 C 235.332031 307.152344 236.9375 305.550781 238.914062 305.550781 C 240.894531 305.550781 242.496094 307.152344 242.496094 309.128906 C 242.496094 311.105469 240.894531 312.707031 238.914062 312.707031 C 236.9375 312.707031 235.332031 311.105469 235.332031 309.128906 " fill-opacity="1" fill-rule="nonzero"/><path fill="#000000" d="M 141.203125 99.824219 C 141.085938 99.824219 140.972656 99.777344 140.882812 99.6875 L 139.460938 98.269531 C 139.285156 98.09375 139.285156 97.804688 139.460938 97.625 C 139.640625 97.445312 139.933594 97.445312 140.109375 97.625 L 141.527344 99.042969 C 141.707031 99.222656 141.707031 99.511719 141.527344 99.6875 C 141.441406 99.777344 141.324219 99.824219 141.203125 99.824219 " fill-opacity="1" fill-rule="nonzero"/><path fill="#000000" d="M 146.167969 104.78125 C 146.050781 104.78125 145.9375 104.738281 145.847656 104.648438 L 144.425781 103.230469 C 144.25 103.050781 144.25 102.761719 144.425781 102.582031 C 144.605469 102.40625 144.894531 102.40625 145.074219 102.582031 L 146.492188 104 C 146.671875 104.179688 146.671875 104.46875 146.492188 104.648438 C 146.40625 104.738281 146.289062 104.78125 146.167969 104.78125 " fill-opacity="1" fill-rule="nonzero"/><path fill="#000000" d="M 139.785156 104.78125 C 139.667969 104.78125 139.550781 104.738281 139.460938 104.648438 C 139.28125 104.46875 139.28125 104.179688 139.460938 104 L 140.878906 102.582031 C 141.058594 102.40625 141.347656 102.40625 141.527344 102.582031 C 141.707031 102.761719 141.707031 103.050781 141.527344 103.230469 L 140.109375 104.648438 C 140.019531 104.738281 139.902344 104.78125 139.785156 104.78125 " fill-opacity="1" fill-rule="nonzero"/><path fill="#000000" d="M 144.75 99.824219 C 144.632812 99.824219 144.515625 99.777344 144.429688 99.6875 C 144.25 99.511719 144.25 99.21875 144.429688 99.042969 L 145.847656 97.625 C 146.023438 97.445312 146.316406 97.445312 146.492188 97.625 C 146.671875 97.804688 146.671875 98.09375 146.492188 98.269531 L 145.074219 99.6875 C 144.984375 99.777344 144.867188 99.824219 144.75 99.824219 " fill-opacity="1" fill-rule="nonzero"/><path fill="#99b9ff" d="M 164.339844 148.660156 C 164.332031 148.660156 164.320312 148.660156 164.308594 148.660156 C 163.109375 148.578125 161.886719 148.53125 160.675781 148.515625 C 160.421875 148.515625 160.21875 148.304688 160.222656 148.054688 C 160.222656 147.800781 160.429688 147.589844 160.683594 147.601562 C 161.914062 147.617188 163.152344 147.664062 164.371094 147.746094 C 164.625 147.765625 164.8125 147.980469 164.796875 148.234375 C 164.78125 148.476562 164.578125 148.660156 164.339844 148.660156 Z M 153.359375 148.832031 C 153.128906 148.832031 152.925781 148.65625 152.902344 148.417969 C 152.878906 148.167969 153.066406 147.945312 153.316406 147.921875 C 154.539062 147.800781 155.777344 147.714844 156.996094 147.660156 C 157.25 147.648438 157.464844 147.84375 157.472656 148.097656 C 157.484375 148.351562 157.289062 148.5625 157.035156 148.574219 C 155.835938 148.628906 154.613281 148.714844 153.40625 148.832031 C 153.390625 148.832031 153.375 148.832031 153.359375 148.832031 Z M 171.605469 149.574219 C 171.578125 149.574219 171.550781 149.570312 171.523438 149.566406 C 170.335938 149.347656 169.128906 149.160156 167.929688 149.007812 C 167.679688 148.976562 167.5 148.75 167.53125 148.496094 C 167.5625 148.246094 167.792969 148.070312 168.042969 148.101562 C 169.257812 148.253906 170.484375 148.441406 171.6875 148.664062 C 171.9375 148.710938 172.101562 148.949219 172.054688 149.199219 C 172.015625 149.417969 171.824219 149.574219 171.605469 149.574219 Z M 146.113281 149.910156 C 145.898438 149.910156 145.707031 149.757812 145.664062 149.539062 C 145.613281 149.292969 145.777344 149.050781 146.023438 149.003906 C 147.230469 148.761719 148.453125 148.550781 149.65625 148.371094 C 149.90625 148.332031 150.140625 148.503906 150.175781 148.753906 C 150.214844 149.003906 150.042969 149.238281 149.789062 149.273438 C 148.605469 149.449219 147.398438 149.660156 146.203125 149.898438 C 146.171875 149.90625 146.140625 149.910156 146.113281 149.910156 Z M 178.71875 151.3125 C 178.675781 151.3125 178.628906 151.304688 178.585938 151.292969 C 177.429688 150.941406 176.25 150.613281 175.078125 150.328125 C 174.832031 150.265625 174.683594 150.019531 174.742188 149.773438 C 174.800781 149.527344 175.050781 149.378906 175.296875 149.4375 C 176.484375 149.730469 177.679688 150.058594 178.855469 150.417969 C 179.09375 150.492188 179.234375 150.746094 179.15625 150.988281 C 179.097656 151.1875 178.917969 151.3125 178.71875 151.3125 Z M 183.984375 153.175781 C 183.925781 153.175781 183.867188 153.164062 183.8125 153.140625 C 183.222656 152.90625 182.625 152.675781 182.035156 152.457031 C 181.796875 152.367188 181.675781 152.105469 181.761719 151.867188 C 181.847656 151.632812 182.113281 151.511719 182.351562 151.597656 C 182.949219 151.820312 183.554688 152.050781 184.15625 152.292969 C 184.390625 152.386719 184.503906 152.652344 184.410156 152.886719 C 184.335938 153.066406 184.164062 153.175781 183.984375 153.175781 " fill-opacity="1" fill-rule="nonzero"/><path fill="#99b9ff" d="M 120.316406 159.714844 C 120.15625 159.714844 120.003906 159.632812 119.917969 159.484375 C 119.789062 159.269531 119.867188 158.988281 120.085938 158.859375 L 120.429688 158.664062 C 120.648438 158.539062 120.929688 158.613281 121.054688 158.832031 C 121.179688 159.054688 121.105469 159.332031 120.886719 159.457031 L 120.542969 159.652344 C 120.472656 159.695312 120.390625 159.714844 120.316406 159.714844 Z M 114.128906 163.636719 C 113.980469 163.636719 113.839844 163.566406 113.75 163.441406 C 113.605469 163.230469 113.65625 162.949219 113.867188 162.804688 C 114.871094 162.105469 115.90625 161.421875 116.933594 160.765625 C 117.148438 160.632812 117.429688 160.695312 117.566406 160.910156 C 117.703125 161.125 117.640625 161.40625 117.425781 161.539062 C 116.40625 162.1875 115.382812 162.863281 114.386719 163.554688 C 114.308594 163.609375 114.21875 163.636719 114.128906 163.636719 Z M 108.285156 168.054688 C 108.152344 168.054688 108.019531 167.996094 107.929688 167.886719 C 107.769531 167.691406 107.796875 167.402344 107.992188 167.242188 C 108.9375 166.464844 109.910156 165.699219 110.882812 164.964844 C 111.085938 164.808594 111.371094 164.851562 111.523438 165.050781 C 111.679688 165.253906 111.636719 165.539062 111.4375 165.691406 C 110.472656 166.421875 109.511719 167.179688 108.574219 167.949219 C 108.488281 168.019531 108.386719 168.054688 108.285156 168.054688 Z M 102.820312 172.929688 C 102.699219 172.929688 102.578125 172.882812 102.488281 172.789062 C 102.3125 172.609375 102.320312 172.320312 102.5 172.144531 C 103.378906 171.292969 104.285156 170.449219 105.195312 169.636719 C 105.386719 169.46875 105.675781 169.484375 105.84375 169.675781 C 106.011719 169.863281 105.996094 170.152344 105.808594 170.320312 C 104.90625 171.125 104.007812 171.960938 103.136719 172.800781 C 103.050781 172.886719 102.933594 172.929688 102.820312 172.929688 Z M 97.761719 178.230469 C 97.65625 178.230469 97.546875 178.191406 97.460938 178.113281 C 97.269531 177.949219 97.253906 177.65625 97.417969 177.46875 C 98.226562 176.550781 99.066406 175.636719 99.90625 174.757812 C 100.082031 174.574219 100.371094 174.566406 100.554688 174.738281 C 100.738281 174.914062 100.746094 175.203125 100.570312 175.386719 C 99.738281 176.261719 98.910156 177.164062 98.105469 178.074219 C 98.015625 178.175781 97.890625 178.230469 97.761719 178.230469 Z M 93.144531 183.910156 C 93.046875 183.910156 92.953125 183.882812 92.867188 183.820312 C 92.667969 183.667969 92.625 183.382812 92.777344 183.179688 C 93.511719 182.199219 94.273438 181.226562 95.042969 180.277344 C 95.199219 180.082031 95.488281 180.050781 95.6875 180.210938 C 95.882812 180.371094 95.914062 180.660156 95.753906 180.855469 C 94.992188 181.792969 94.234375 182.757812 93.511719 183.726562 C 93.421875 183.847656 93.28125 183.910156 93.144531 183.910156 " fill-opacity="1" fill-rule="nonzero"/><path fill="#99b9ff" d="M 242.882812 211.6875 C 242.875 211.6875 242.871094 211.6875 242.863281 211.683594 C 242.609375 211.671875 242.414062 211.460938 242.425781 211.207031 C 242.527344 208.886719 242.636719 207.546875 242.636719 207.535156 C 242.65625 207.28125 242.878906 207.097656 243.128906 207.117188 C 243.382812 207.136719 243.570312 207.355469 243.550781 207.609375 C 243.546875 207.621094 243.441406 208.945312 243.339844 211.246094 C 243.328125 211.496094 243.125 211.6875 242.882812 211.6875 Z M 242.703125 219.003906 C 242.699219 219.003906 242.699219 219.003906 242.695312 219.003906 C 242.445312 219.003906 242.242188 218.796875 242.242188 218.542969 C 242.25 217.308594 242.269531 216.074219 242.300781 214.875 C 242.304688 214.628906 242.507812 214.429688 242.757812 214.429688 C 242.761719 214.429688 242.765625 214.429688 242.769531 214.429688 C 243.019531 214.4375 243.222656 214.644531 243.21875 214.898438 C 243.1875 216.089844 243.167969 217.320312 243.160156 218.550781 C 243.15625 218.800781 242.953125 219.003906 242.703125 219.003906 Z M 75.660156 219.515625 C 75.621094 219.515625 75.582031 219.507812 75.542969 219.496094 C 75.296875 219.433594 75.152344 219.179688 75.21875 218.9375 C 75.28125 218.699219 75.347656 218.460938 75.410156 218.21875 C 75.480469 217.976562 75.730469 217.832031 75.976562 217.902344 C 76.21875 217.96875 76.363281 218.21875 76.296875 218.460938 C 76.230469 218.699219 76.164062 218.9375 76.101562 219.171875 C 76.046875 219.378906 75.863281 219.515625 75.660156 219.515625 Z M 242.773438 226.335938 C 242.523438 226.335938 242.316406 226.136719 242.3125 225.890625 C 242.28125 224.671875 242.257812 223.433594 242.25 222.214844 C 242.246094 221.964844 242.449219 221.757812 242.703125 221.753906 C 242.703125 221.753906 242.703125 221.753906 242.707031 221.753906 C 242.957031 221.753906 243.164062 221.953125 243.164062 222.207031 C 243.175781 223.417969 243.199219 224.652344 243.226562 225.863281 C 243.234375 226.117188 243.035156 226.328125 242.78125 226.332031 C 242.777344 226.335938 242.773438 226.335938 242.773438 226.335938 Z M 74.0625 226.652344 C 74.039062 226.652344 74.011719 226.648438 73.984375 226.644531 C 73.734375 226.601562 73.570312 226.363281 73.613281 226.113281 C 73.828125 224.921875 74.074219 223.707031 74.339844 222.511719 C 74.394531 222.261719 74.640625 222.109375 74.886719 222.160156 C 75.136719 222.21875 75.289062 222.460938 75.234375 222.707031 C 74.96875 223.894531 74.726562 225.09375 74.515625 226.277344 C 74.476562 226.496094 74.28125 226.652344 74.0625 226.652344 Z M 243.082031 233.660156 C 242.839844 233.660156 242.640625 233.472656 242.625 233.230469 C 242.554688 232.023438 242.488281 230.789062 242.4375 229.558594 C 242.429688 229.308594 242.625 229.09375 242.875 229.085938 C 243.132812 229.070312 243.34375 229.269531 243.351562 229.519531 C 243.40625 230.742188 243.46875 231.972656 243.539062 233.175781 C 243.554688 233.425781 243.363281 233.644531 243.109375 233.660156 C 243.101562 233.660156 243.089844 233.660156 243.082031 233.660156 Z M 73.082031 233.902344 C 73.070312 233.902344 73.054688 233.902344 73.042969 233.898438 C 72.789062 233.878906 72.605469 233.65625 72.625 233.402344 C 72.738281 232.191406 72.875 230.960938 73.039062 229.746094 C 73.074219 229.496094 73.300781 229.320312 73.554688 229.355469 C 73.804688 229.390625 73.980469 229.621094 73.949219 229.871094 C 73.785156 231.070312 73.648438 232.289062 73.539062 233.488281 C 73.519531 233.722656 73.320312 233.902344 73.082031 233.902344 Z M 243.644531 240.96875 C 243.410156 240.96875 243.210938 240.789062 243.1875 240.554688 C 243.074219 239.34375 242.96875 238.109375 242.875 236.894531 C 242.855469 236.640625 243.042969 236.421875 243.296875 236.402344 C 243.542969 236.382812 243.769531 236.570312 243.789062 236.824219 C 243.882812 238.035156 243.988281 239.261719 244.101562 240.464844 C 244.125 240.71875 243.941406 240.941406 243.6875 240.964844 C 243.675781 240.96875 243.660156 240.96875 243.644531 240.96875 Z M 72.761719 241.210938 C 72.507812 241.210938 72.304688 241.007812 72.300781 240.753906 L 72.300781 240.5625 C 72.300781 239.410156 72.328125 238.238281 72.378906 237.074219 C 72.390625 236.824219 72.605469 236.625 72.855469 236.636719 C 73.109375 236.648438 73.304688 236.863281 73.292969 237.117188 C 73.242188 238.265625 73.21875 239.421875 73.21875 240.5625 L 73.21875 240.753906 C 73.21875 241.003906 73.015625 241.210938 72.761719 241.210938 Z M 244.480469 248.246094 C 244.253906 248.246094 244.058594 248.082031 244.027344 247.851562 C 243.863281 246.65625 243.710938 245.429688 243.570312 244.207031 C 243.542969 243.957031 243.722656 243.726562 243.976562 243.699219 C 244.226562 243.671875 244.453125 243.851562 244.480469 244.101562 C 244.621094 245.320312 244.773438 246.539062 244.933594 247.730469 C 244.96875 247.980469 244.792969 248.210938 244.542969 248.242188 C 244.523438 248.246094 244.5 248.246094 244.480469 248.246094 Z M 73.125 248.515625 C 72.894531 248.515625 72.695312 248.339844 72.671875 248.105469 C 72.550781 246.890625 72.460938 245.65625 72.398438 244.433594 C 72.386719 244.183594 72.582031 243.96875 72.832031 243.953125 C 73.085938 243.9375 73.300781 244.136719 73.3125 244.390625 C 73.375 245.59375 73.464844 246.816406 73.582031 248.015625 C 73.609375 248.265625 73.421875 248.492188 73.171875 248.515625 C 73.15625 248.515625 73.140625 248.515625 73.125 248.515625 Z M 245.617188 255.488281 C 245.398438 255.488281 245.207031 255.332031 245.164062 255.109375 C 244.953125 253.925781 244.75 252.710938 244.554688 251.488281 C 244.519531 251.238281 244.6875 251.003906 244.9375 250.964844 C 245.191406 250.925781 245.421875 251.09375 245.460938 251.34375 C 245.652344 252.558594 245.855469 253.773438 246.070312 254.949219 C 246.113281 255.199219 245.945312 255.433594 245.695312 255.480469 C 245.671875 255.484375 245.644531 255.488281 245.617188 255.488281 Z M 74.199219 255.753906 C 73.984375 255.753906 73.792969 255.601562 73.75 255.382812 C 73.511719 254.1875 73.300781 252.96875 73.121094 251.757812 C 73.085938 251.507812 73.257812 251.273438 73.507812 251.238281 C 73.757812 251.199219 73.992188 251.375 74.027344 251.621094 C 74.203125 252.820312 74.414062 254.023438 74.648438 255.203125 C 74.699219 255.453125 74.535156 255.695312 74.289062 255.742188 C 74.257812 255.75 74.226562 255.753906 74.199219 255.753906 Z M 247.089844 262.65625 C 246.882812 262.65625 246.695312 262.515625 246.644531 262.304688 C 246.375 261.132812 246.109375 259.925781 245.863281 258.71875 C 245.808594 258.472656 245.96875 258.230469 246.21875 258.179688 C 246.464844 258.128906 246.707031 258.289062 246.757812 258.535156 C 247.003906 259.734375 247.269531 260.933594 247.539062 262.097656 C 247.59375 262.34375 247.441406 262.589844 247.195312 262.644531 C 247.160156 262.65625 247.125 262.65625 247.089844 262.65625 Z M 75.976562 262.847656 C 75.78125 262.847656 75.597656 262.71875 75.539062 262.519531 C 75.183594 261.351562 74.851562 260.160156 74.554688 258.972656 C 74.496094 258.730469 74.644531 258.480469 74.890625 258.417969 C 75.136719 258.355469 75.382812 258.507812 75.445312 258.75 C 75.738281 259.921875 76.066406 261.101562 76.414062 262.257812 C 76.488281 262.496094 76.351562 262.753906 76.109375 262.828125 C 76.066406 262.839844 76.019531 262.847656 75.976562 262.847656 Z M 283.625 264.996094 C 283.390625 264.996094 283.191406 264.820312 283.167969 264.582031 C 283.144531 264.332031 283.332031 264.105469 283.582031 264.085938 C 284.847656 263.96875 286.09375 263.90625 287.28125 263.902344 C 287.28125 263.902344 287.28125 263.902344 287.285156 263.902344 C 287.535156 263.902344 287.742188 264.105469 287.742188 264.359375 C 287.742188 264.609375 287.539062 264.816406 287.285156 264.816406 C 286.125 264.820312 284.90625 264.882812 283.667969 264.996094 C 283.652344 264.996094 283.636719 264.996094 283.625 264.996094 Z M 294.546875 265.609375 C 294.511719 265.609375 294.476562 265.605469 294.441406 265.597656 C 293.316406 265.324219 292.121094 265.121094 290.890625 264.992188 C 290.640625 264.964844 290.457031 264.742188 290.484375 264.492188 C 290.511719 264.238281 290.742188 264.054688 290.988281 264.082031 C 292.257812 264.214844 293.492188 264.425781 294.65625 264.707031 C 294.902344 264.769531 295.054688 265.015625 294.992188 265.257812 C 294.941406 265.46875 294.753906 265.609375 294.546875 265.609375 Z M 276.492188 266.539062 C 276.308594 266.539062 276.132812 266.425781 276.0625 266.238281 C 275.976562 266.003906 276.097656 265.738281 276.335938 265.652344 C 277.601562 265.191406 278.800781 264.835938 279.902344 264.597656 C 280.148438 264.542969 280.390625 264.699219 280.445312 264.945312 C 280.5 265.195312 280.34375 265.4375 280.097656 265.492188 C 279.035156 265.71875 277.875 266.0625 276.652344 266.511719 C 276.597656 266.53125 276.546875 266.539062 276.492188 266.539062 Z M 301.253906 268.453125 C 301.167969 268.453125 301.082031 268.429688 301.003906 268.378906 C 300.023438 267.738281 298.960938 267.175781 297.847656 266.707031 C 297.613281 266.609375 297.503906 266.339844 297.601562 266.109375 C 297.703125 265.875 297.96875 265.765625 298.203125 265.863281 C 299.371094 266.355469 300.480469 266.941406 301.503906 267.613281 C 301.71875 267.753906 301.777344 268.035156 301.636719 268.246094 C 301.550781 268.382812 301.402344 268.453125 301.253906 268.453125 Z M 269.828125 269.582031 C 269.667969 269.582031 269.507812 269.496094 269.425781 269.339844 C 269.308594 269.117188 269.390625 268.839844 269.617188 268.722656 C 270.78125 268.109375 271.890625 267.554688 272.921875 267.078125 C 273.148438 266.972656 273.421875 267.074219 273.527344 267.300781 C 273.636719 267.53125 273.535156 267.804688 273.308594 267.910156 C 272.292969 268.378906 271.191406 268.925781 270.042969 269.53125 C 269.976562 269.566406 269.902344 269.582031 269.828125 269.582031 Z M 78.445312 269.734375 C 78.265625 269.734375 78.09375 269.625 78.023438 269.449219 C 77.554688 268.320312 77.105469 267.164062 76.695312 266.015625 C 76.609375 265.777344 76.734375 265.515625 76.972656 265.429688 C 77.210938 265.347656 77.472656 265.46875 77.558594 265.707031 C 77.964844 266.84375 78.40625 267.984375 78.867188 269.101562 C 78.964844 269.335938 78.855469 269.601562 78.621094 269.699219 C 78.5625 269.722656 78.503906 269.734375 78.445312 269.734375 Z M 248.957031 269.742188 C 248.761719 269.742188 248.578125 269.613281 248.519531 269.414062 C 248.175781 268.257812 247.84375 267.066406 247.527344 265.871094 C 247.464844 265.628906 247.613281 265.378906 247.855469 265.3125 C 248.101562 265.246094 248.351562 265.394531 248.414062 265.640625 C 248.726562 266.824219 249.058594 268.007812 249.394531 269.15625 C 249.46875 269.398438 249.332031 269.652344 249.085938 269.722656 C 249.042969 269.738281 249 269.742188 248.957031 269.742188 Z M 263.460938 273.214844 C 263.304688 273.214844 263.152344 273.136719 263.066406 272.992188 C 262.933594 272.777344 263.007812 272.496094 263.222656 272.367188 C 264.355469 271.679688 265.394531 271.070312 266.394531 270.5 C 266.613281 270.375 266.890625 270.449219 267.015625 270.667969 C 267.140625 270.886719 267.066406 271.167969 266.847656 271.292969 C 265.855469 271.863281 264.824219 272.46875 263.695312 273.148438 C 263.621094 273.191406 263.539062 273.214844 263.460938 273.214844 Z M 306.460938 273.53125 C 306.316406 273.53125 306.171875 273.460938 306.085938 273.335938 C 305.394531 272.347656 304.621094 271.433594 303.78125 270.613281 C 303.601562 270.4375 303.597656 270.144531 303.773438 269.964844 C 303.953125 269.785156 304.242188 269.78125 304.421875 269.957031 C 305.300781 270.816406 306.113281 271.777344 306.835938 272.8125 C 306.980469 273.019531 306.929688 273.304688 306.722656 273.449219 C 306.644531 273.503906 306.550781 273.53125 306.460938 273.53125 Z M 81.574219 276.347656 C 81.410156 276.347656 81.253906 276.257812 81.167969 276.105469 C 80.59375 275.023438 80.035156 273.914062 79.515625 272.816406 C 79.40625 272.585938 79.503906 272.316406 79.734375 272.207031 C 79.960938 272.097656 80.234375 272.195312 80.34375 272.425781 C 80.859375 273.511719 81.410156 274.605469 81.976562 275.675781 C 82.097656 275.898438 82.011719 276.171875 81.789062 276.292969 C 81.722656 276.328125 81.648438 276.347656 81.574219 276.347656 Z M 251.277344 276.699219 C 251.09375 276.699219 250.917969 276.585938 250.847656 276.398438 C 250.429688 275.277344 250.015625 274.109375 249.625 272.929688 C 249.542969 272.691406 249.671875 272.433594 249.914062 272.351562 C 250.15625 272.273438 250.414062 272.402344 250.492188 272.644531 C 250.878906 273.8125 251.292969 274.96875 251.707031 276.078125 C 251.796875 276.316406 251.675781 276.582031 251.4375 276.667969 C 251.386719 276.6875 251.332031 276.699219 251.277344 276.699219 Z M 257.234375 277.085938 C 257.078125 277.085938 256.933594 277.011719 256.84375 276.875 C 256.707031 276.660156 256.773438 276.378906 256.984375 276.246094 C 258.039062 275.574219 259.078125 274.917969 260.089844 274.285156 C 260.304688 274.152344 260.585938 274.21875 260.722656 274.433594 C 260.855469 274.648438 260.789062 274.929688 260.578125 275.0625 C 259.5625 275.695312 258.53125 276.347656 257.476562 277.015625 C 257.398438 277.066406 257.316406 277.085938 257.234375 277.085938 Z M 309.621094 280.101562 C 309.425781 280.101562 309.246094 279.976562 309.183594 279.78125 C 308.816406 278.609375 308.378906 277.480469 307.878906 276.433594 C 307.773438 276.207031 307.871094 275.933594 308.097656 275.824219 C 308.328125 275.71875 308.601562 275.8125 308.710938 276.042969 C 309.226562 277.128906 309.679688 278.292969 310.058594 279.507812 C 310.132812 279.75 310 280.007812 309.757812 280.082031 C 309.710938 280.097656 309.667969 280.101562 309.621094 280.101562 Z M 85.316406 282.621094 C 85.167969 282.621094 85.019531 282.546875 84.933594 282.414062 C 84.257812 281.398438 83.601562 280.351562 82.976562 279.300781 C 82.847656 279.085938 82.917969 278.804688 83.136719 278.675781 C 83.351562 278.546875 83.632812 278.617188 83.761719 278.835938 C 84.378906 279.867188 85.03125 280.902344 85.695312 281.910156 C 85.835938 282.121094 85.777344 282.40625 85.566406 282.542969 C 85.488281 282.59375 85.402344 282.621094 85.316406 282.621094 Z M 254.125 283.445312 C 253.957031 283.445312 253.789062 283.347656 253.710938 283.183594 C 253.265625 282.238281 252.824219 281.261719 252.398438 280.269531 C 252.035156 280.503906 251.675781 280.738281 251.308594 280.976562 C 251.097656 281.113281 250.8125 281.050781 250.671875 280.839844 C 250.539062 280.625 250.597656 280.34375 250.8125 280.207031 C 251.855469 279.535156 252.882812 278.871094 253.894531 278.21875 C 254.105469 278.082031 254.390625 278.144531 254.527344 278.359375 C 254.664062 278.570312 254.605469 278.851562 254.390625 278.988281 C 253.992188 279.246094 253.585938 279.507812 253.179688 279.769531 C 253.621094 280.796875 254.074219 281.8125 254.539062 282.789062 C 254.648438 283.019531 254.550781 283.292969 254.324219 283.398438 C 254.257812 283.429688 254.191406 283.445312 254.125 283.445312 Z M 244.890625 285.011719 C 244.738281 285.011719 244.589844 284.9375 244.503906 284.800781 C 244.367188 284.589844 244.433594 284.304688 244.644531 284.171875 C 245.6875 283.503906 246.714844 282.84375 247.730469 282.191406 C 247.941406 282.054688 248.226562 282.117188 248.363281 282.328125 C 248.5 282.542969 248.4375 282.824219 248.226562 282.960938 C 247.210938 283.613281 246.183594 284.273438 245.136719 284.941406 C 245.0625 284.988281 244.976562 285.011719 244.890625 285.011719 Z M 310.996094 287.277344 C 310.761719 287.277344 310.558594 287.097656 310.539062 286.859375 C 310.433594 285.628906 310.269531 284.425781 310.050781 283.28125 C 310.003906 283.03125 310.167969 282.792969 310.414062 282.746094 C 310.664062 282.699219 310.90625 282.863281 310.953125 283.109375 C 311.171875 284.285156 311.34375 285.523438 311.453125 286.78125 C 311.476562 287.03125 311.289062 287.253906 311.039062 287.277344 C 311.023438 287.277344 311.011719 287.277344 310.996094 287.277344 Z M 89.628906 288.519531 C 89.496094 288.519531 89.363281 288.460938 89.269531 288.347656 C 88.503906 287.394531 87.753906 286.414062 87.03125 285.433594 C 86.882812 285.226562 86.929688 284.941406 87.132812 284.792969 C 87.335938 284.644531 87.625 284.6875 87.773438 284.890625 C 88.484375 285.863281 89.226562 286.835938 89.984375 287.773438 C 90.144531 287.972656 90.113281 288.261719 89.914062 288.417969 C 89.832031 288.488281 89.730469 288.519531 89.628906 288.519531 Z M 238.6875 288.925781 C 238.535156 288.925781 238.386719 288.847656 238.300781 288.710938 C 238.164062 288.492188 238.230469 288.210938 238.449219 288.078125 C 239.496094 287.425781 240.53125 286.777344 241.550781 286.132812 C 241.765625 286 242.046875 286.0625 242.183594 286.277344 C 242.316406 286.488281 242.253906 286.773438 242.042969 286.90625 C 241.015625 287.554688 239.980469 288.203125 238.929688 288.855469 C 238.855469 288.902344 238.773438 288.925781 238.6875 288.925781 Z M 257.59375 289.890625 C 257.4375 289.890625 257.285156 289.8125 257.199219 289.671875 C 256.574219 288.644531 255.957031 287.566406 255.371094 286.472656 C 255.253906 286.25 255.335938 285.972656 255.558594 285.851562 C 255.78125 285.734375 256.058594 285.816406 256.179688 286.039062 C 256.761719 287.121094 257.367188 288.183594 257.984375 289.195312 C 258.113281 289.414062 258.046875 289.695312 257.832031 289.824219 C 257.753906 289.871094 257.671875 289.890625 257.59375 289.890625 Z M 232.429688 292.738281 C 232.273438 292.738281 232.121094 292.660156 232.035156 292.515625 C 231.902344 292.296875 231.976562 292.015625 232.191406 291.886719 C 233.25 291.257812 234.296875 290.628906 235.328125 290 C 235.546875 289.867188 235.828125 289.933594 235.957031 290.148438 C 236.089844 290.363281 236.023438 290.644531 235.804688 290.777344 C 234.769531 291.410156 233.722656 292.042969 232.660156 292.675781 C 232.589844 292.71875 232.507812 292.738281 232.429688 292.738281 Z M 94.46875 294.003906 C 94.347656 294.003906 94.226562 293.957031 94.136719 293.863281 C 93.289062 292.984375 92.449219 292.078125 91.640625 291.160156 C 91.476562 290.972656 91.492188 290.683594 91.683594 290.515625 C 91.871094 290.347656 92.164062 290.367188 92.328125 290.558594 C 93.128906 291.460938 93.957031 292.359375 94.796875 293.230469 C 94.972656 293.410156 94.96875 293.703125 94.785156 293.875 C 94.695312 293.960938 94.582031 294.003906 94.46875 294.003906 Z M 310.875 294.578125 C 310.851562 294.578125 310.824219 294.574219 310.800781 294.570312 C 310.554688 294.53125 310.382812 294.296875 310.421875 294.046875 C 310.601562 292.914062 310.699219 291.710938 310.703125 290.472656 C 310.703125 290.222656 310.910156 290.019531 311.160156 290.019531 L 311.164062 290.019531 C 311.417969 290.019531 311.621094 290.226562 311.621094 290.476562 C 311.613281 291.761719 311.515625 293.011719 311.324219 294.191406 C 311.289062 294.417969 311.097656 294.578125 310.875 294.578125 Z M 261.769531 295.898438 C 261.636719 295.898438 261.503906 295.835938 261.414062 295.726562 C 260.660156 294.78125 259.921875 293.785156 259.210938 292.765625 C 259.066406 292.554688 259.117188 292.269531 259.324219 292.125 C 259.535156 291.984375 259.816406 292.035156 259.960938 292.242188 C 260.664062 293.25 261.390625 294.230469 262.128906 295.152344 C 262.289062 295.351562 262.253906 295.640625 262.054688 295.796875 C 261.972656 295.863281 261.871094 295.898438 261.769531 295.898438 Z M 226.089844 296.421875 C 225.929688 296.421875 225.773438 296.335938 225.6875 296.1875 C 225.5625 295.96875 225.644531 295.6875 225.863281 295.566406 C 226.898438 294.980469 227.96875 294.371094 229.039062 293.746094 C 229.253906 293.617188 229.539062 293.691406 229.664062 293.910156 C 229.792969 294.128906 229.71875 294.410156 229.5 294.535156 C 228.425781 295.164062 227.351562 295.777344 226.3125 296.363281 C 226.242188 296.402344 226.164062 296.421875 226.089844 296.421875 Z M 99.78125 299.039062 C 99.671875 299.039062 99.566406 299 99.480469 298.925781 C 98.554688 298.125 97.636719 297.292969 96.753906 296.453125 C 96.570312 296.28125 96.5625 295.992188 96.734375 295.808594 C 96.910156 295.625 97.199219 295.617188 97.382812 295.789062 C 98.257812 296.621094 99.167969 297.441406 100.082031 298.234375 C 100.273438 298.402344 100.292969 298.691406 100.125 298.878906 C 100.035156 298.984375 99.90625 299.039062 99.78125 299.039062 Z M 219.65625 299.9375 C 219.492188 299.9375 219.332031 299.851562 219.25 299.695312 C 219.132812 299.472656 219.21875 299.195312 219.441406 299.074219 C 220.503906 298.515625 221.589844 297.929688 222.664062 297.34375 C 222.886719 297.222656 223.164062 297.300781 223.285156 297.523438 C 223.410156 297.746094 223.328125 298.023438 223.105469 298.144531 C 222.027344 298.734375 220.9375 299.320312 219.871094 299.882812 C 219.800781 299.921875 219.730469 299.9375 219.65625 299.9375 Z M 266.738281 301.265625 C 266.625 301.265625 266.515625 301.226562 266.425781 301.144531 C 265.539062 300.320312 264.660156 299.441406 263.816406 298.527344 C 263.644531 298.339844 263.652344 298.050781 263.839844 297.878906 C 264.027344 297.710938 264.316406 297.71875 264.488281 297.90625 C 265.316406 298.804688 266.175781 299.667969 267.046875 300.472656 C 267.234375 300.644531 267.246094 300.933594 267.074219 301.117188 C 266.984375 301.214844 266.859375 301.265625 266.738281 301.265625 Z M 308.390625 301.410156 C 308.308594 301.410156 308.226562 301.390625 308.152344 301.34375 C 307.9375 301.210938 307.871094 300.929688 308 300.714844 C 308.617188 299.710938 309.136719 298.632812 309.542969 297.503906 C 309.628906 297.265625 309.890625 297.144531 310.128906 297.230469 C 310.367188 297.3125 310.488281 297.574219 310.402344 297.8125 C 309.980469 299 309.429688 300.136719 308.78125 301.191406 C 308.699219 301.332031 308.546875 301.410156 308.390625 301.410156 Z M 213.121094 303.257812 C 212.953125 303.257812 212.789062 303.164062 212.710938 303.003906 C 212.597656 302.773438 212.691406 302.503906 212.921875 302.390625 C 214 301.867188 215.097656 301.316406 216.195312 300.761719 C 216.417969 300.644531 216.695312 300.734375 216.8125 300.960938 C 216.925781 301.183594 216.835938 301.460938 216.609375 301.574219 C 215.507812 302.136719 214.402344 302.683594 213.324219 303.210938 C 213.257812 303.242188 213.1875 303.257812 213.121094 303.257812 Z M 105.515625 303.585938 C 105.421875 303.585938 105.328125 303.558594 105.246094 303.496094 C 104.257812 302.78125 103.269531 302.035156 102.3125 301.273438 C 102.113281 301.117188 102.082031 300.832031 102.238281 300.632812 C 102.398438 300.433594 102.683594 300.402344 102.882812 300.558594 C 103.828125 301.308594 104.804688 302.046875 105.785156 302.757812 C 105.988281 302.90625 106.035156 303.191406 105.886719 303.398438 C 105.796875 303.519531 105.65625 303.585938 105.515625 303.585938 Z M 272.5 305.75 C 272.414062 305.75 272.328125 305.726562 272.253906 305.679688 C 271.226562 305.015625 270.214844 304.296875 269.238281 303.535156 C 269.039062 303.378906 269.003906 303.09375 269.160156 302.894531 C 269.316406 302.695312 269.605469 302.660156 269.804688 302.8125 C 270.757812 303.558594 271.75 304.261719 272.75 304.910156 C 272.960938 305.046875 273.023438 305.328125 272.886719 305.542969 C 272.796875 305.675781 272.648438 305.75 272.5 305.75 Z M 206.476562 306.355469 C 206.300781 306.355469 206.132812 306.253906 206.058594 306.082031 C 205.957031 305.851562 206.058594 305.582031 206.292969 305.480469 C 207.390625 304.992188 208.511719 304.484375 209.617188 303.964844 C 209.851562 303.859375 210.121094 303.957031 210.226562 304.1875 C 210.335938 304.414062 210.234375 304.6875 210.007812 304.792969 C 208.890625 305.3125 207.765625 305.824219 206.664062 306.316406 C 206.601562 306.339844 206.539062 306.355469 206.476562 306.355469 Z M 303.402344 306.707031 C 303.261719 306.707031 303.125 306.640625 303.03125 306.515625 C 302.882812 306.3125 302.929688 306.027344 303.136719 305.878906 C 304.125 305.164062 305.03125 304.375 305.832031 303.53125 C 306.003906 303.351562 306.292969 303.34375 306.476562 303.515625 C 306.660156 303.6875 306.667969 303.980469 306.496094 304.164062 C 305.65625 305.046875 304.707031 305.871094 303.671875 306.621094 C 303.589844 306.679688 303.496094 306.707031 303.402344 306.707031 Z M 111.625 307.617188 C 111.542969 307.617188 111.460938 307.597656 111.386719 307.554688 C 110.339844 306.925781 109.292969 306.265625 108.273438 305.59375 C 108.0625 305.453125 108.003906 305.167969 108.144531 304.957031 C 108.28125 304.746094 108.566406 304.6875 108.777344 304.828125 C 109.789062 305.496094 110.824219 306.148438 111.859375 306.769531 C 112.078125 306.898438 112.148438 307.179688 112.015625 307.398438 C 111.929688 307.539062 111.78125 307.617188 111.625 307.617188 Z M 278.972656 309.140625 C 278.914062 309.140625 278.855469 309.128906 278.796875 309.105469 C 277.660156 308.636719 276.53125 308.109375 275.445312 307.542969 C 275.21875 307.421875 275.132812 307.148438 275.25 306.921875 C 275.371094 306.699219 275.644531 306.613281 275.871094 306.730469 C 276.933594 307.285156 278.035156 307.800781 279.148438 308.257812 C 279.382812 308.355469 279.492188 308.621094 279.398438 308.855469 C 279.324219 309.03125 279.152344 309.140625 278.972656 309.140625 Z M 199.71875 309.191406 C 199.539062 309.191406 199.363281 309.082031 199.292969 308.902344 C 199.199219 308.667969 199.316406 308.402344 199.550781 308.308594 C 200.671875 307.867188 201.808594 307.402344 202.933594 306.929688 C 203.167969 306.832031 203.4375 306.941406 203.535156 307.171875 C 203.632812 307.40625 203.523438 307.675781 203.292969 307.773438 C 202.15625 308.246094 201.011719 308.714844 199.886719 309.160156 C 199.832031 309.183594 199.777344 309.191406 199.71875 309.191406 Z M 296.890625 310 C 296.695312 310 296.515625 309.878906 296.453125 309.6875 C 296.375 309.449219 296.507812 309.1875 296.746094 309.109375 C 297.773438 308.773438 298.789062 308.363281 299.757812 307.886719 C 299.859375 307.839844 299.960938 307.785156 300.066406 307.734375 C 300.292969 307.621094 300.566406 307.710938 300.679688 307.9375 C 300.796875 308.164062 300.703125 308.4375 300.480469 308.550781 C 300.371094 308.605469 300.265625 308.660156 300.160156 308.710938 C 299.152344 309.203125 298.097656 309.628906 297.03125 309.980469 C 296.984375 309.996094 296.9375 310 296.890625 310 Z M 286.03125 311.03125 C 286.011719 311.03125 285.996094 311.027344 285.976562 311.027344 C 284.75 310.875 283.519531 310.636719 282.316406 310.3125 C 282.074219 310.246094 281.929688 309.996094 281.996094 309.753906 C 282.058594 309.507812 282.3125 309.363281 282.554688 309.429688 C 283.714844 309.742188 284.902344 309.972656 286.085938 310.121094 C 286.339844 310.148438 286.515625 310.378906 286.484375 310.628906 C 286.457031 310.859375 286.257812 311.03125 286.03125 311.03125 Z M 118.058594 311.109375 C 117.992188 311.109375 117.921875 311.09375 117.859375 311.0625 C 116.761719 310.527344 115.660156 309.960938 114.585938 309.378906 C 114.363281 309.257812 114.28125 308.980469 114.402344 308.757812 C 114.523438 308.535156 114.800781 308.453125 115.023438 308.574219 C 116.085938 309.152344 117.175781 309.710938 118.261719 310.238281 C 118.488281 310.347656 118.582031 310.625 118.472656 310.851562 C 118.390625 311.015625 118.226562 311.109375 118.058594 311.109375 Z M 289.6875 311.21875 C 289.441406 311.21875 289.234375 311.019531 289.230469 310.769531 C 289.222656 310.519531 289.425781 310.308594 289.679688 310.304688 C 290.878906 310.28125 292.085938 310.167969 293.257812 309.96875 C 293.503906 309.925781 293.742188 310.09375 293.785156 310.34375 C 293.828125 310.59375 293.660156 310.828125 293.410156 310.871094 C 292.191406 311.078125 290.941406 311.195312 289.699219 311.21875 C 289.695312 311.21875 289.691406 311.21875 289.6875 311.21875 Z M 192.847656 311.746094 C 192.660156 311.746094 192.480469 311.625 192.414062 311.433594 C 192.332031 311.195312 192.457031 310.933594 192.699219 310.851562 C 193.835938 310.460938 194.992188 310.042969 196.136719 309.621094 C 196.375 309.53125 196.640625 309.652344 196.726562 309.890625 C 196.816406 310.125 196.695312 310.390625 196.457031 310.476562 C 195.304688 310.90625 194.140625 311.324219 193 311.71875 C 192.949219 311.734375 192.898438 311.746094 192.847656 311.746094 Z M 185.867188 313.976562 C 185.667969 313.976562 185.488281 313.847656 185.429688 313.648438 C 185.355469 313.40625 185.496094 313.152344 185.738281 313.078125 C 186.894531 312.738281 188.070312 312.378906 189.234375 312.007812 C 189.472656 311.933594 189.730469 312.0625 189.808594 312.304688 C 189.886719 312.546875 189.75 312.800781 189.511719 312.878906 C 188.34375 313.253906 187.160156 313.617188 185.996094 313.957031 C 185.953125 313.96875 185.910156 313.976562 185.867188 313.976562 Z M 124.773438 314.023438 C 124.71875 314.023438 124.664062 314.015625 124.609375 313.992188 C 123.46875 313.558594 122.324219 313.089844 121.203125 312.601562 C 120.96875 312.5 120.863281 312.230469 120.964844 312 C 121.066406 311.769531 121.335938 311.660156 121.566406 311.761719 C 122.675781 312.246094 123.8125 312.707031 124.9375 313.140625 C 125.175781 313.230469 125.292969 313.492188 125.203125 313.730469 C 125.132812 313.910156 124.957031 314.023438 124.773438 314.023438 Z M 178.785156 315.859375 C 178.578125 315.859375 178.390625 315.71875 178.339844 315.511719 C 178.28125 315.265625 178.433594 315.019531 178.679688 314.957031 C 179.851562 314.679688 181.046875 314.378906 182.222656 314.0625 C 182.464844 314 182.714844 314.144531 182.78125 314.386719 C 182.847656 314.632812 182.703125 314.882812 182.457031 314.949219 C 181.273438 315.265625 180.074219 315.566406 178.894531 315.847656 C 178.859375 315.855469 178.820312 315.859375 178.785156 315.859375 Z M 131.71875 316.335938 C 131.679688 316.335938 131.636719 316.328125 131.59375 316.316406 C 130.421875 315.984375 129.238281 315.621094 128.074219 315.234375 C 127.835938 315.152344 127.707031 314.894531 127.785156 314.65625 C 127.867188 314.414062 128.125 314.285156 128.367188 314.367188 C 129.511719 314.746094 130.683594 315.109375 131.84375 315.4375 C 132.089844 315.507812 132.230469 315.757812 132.160156 316 C 132.101562 316.203125 131.917969 316.335938 131.71875 316.335938 Z M 171.617188 317.371094 C 171.398438 317.371094 171.207031 317.214844 171.167969 316.996094 C 171.121094 316.746094 171.285156 316.507812 171.535156 316.464844 C 172.722656 316.246094 173.925781 316.011719 175.117188 315.757812 C 175.363281 315.707031 175.609375 315.863281 175.660156 316.113281 C 175.710938 316.359375 175.554688 316.601562 175.308594 316.65625 C 174.109375 316.90625 172.894531 317.144531 171.699219 317.363281 C 171.671875 317.367188 171.644531 317.371094 171.617188 317.371094 Z M 138.847656 318.007812 C 138.816406 318.007812 138.789062 318.003906 138.761719 318 C 137.5625 317.773438 136.347656 317.519531 135.160156 317.238281 C 134.910156 317.183594 134.757812 316.9375 134.816406 316.691406 C 134.875 316.445312 135.121094 316.292969 135.367188 316.351562 C 136.546875 316.625 137.742188 316.878906 138.929688 317.097656 C 139.179688 317.144531 139.34375 317.386719 139.296875 317.632812 C 139.253906 317.855469 139.0625 318.007812 138.847656 318.007812 Z M 164.371094 318.480469 C 164.144531 318.480469 163.945312 318.3125 163.917969 318.078125 C 163.886719 317.828125 164.066406 317.601562 164.316406 317.570312 C 165.515625 317.421875 166.730469 317.253906 167.933594 317.066406 C 168.179688 317.027344 168.417969 317.199219 168.453125 317.449219 C 168.492188 317.699219 168.324219 317.933594 168.074219 317.972656 C 166.863281 318.15625 165.636719 318.328125 164.429688 318.476562 C 164.410156 318.480469 164.390625 318.480469 164.371094 318.480469 Z M 146.097656 319.007812 C 146.085938 319.007812 146.070312 319.003906 146.058594 319.003906 C 144.84375 318.898438 143.609375 318.753906 142.398438 318.589844 C 142.144531 318.554688 141.972656 318.324219 142.007812 318.074219 C 142.039062 317.824219 142.269531 317.648438 142.523438 317.683594 C 143.722656 317.847656 144.9375 317.984375 146.136719 318.09375 C 146.390625 318.117188 146.578125 318.335938 146.554688 318.589844 C 146.53125 318.828125 146.332031 319.007812 146.097656 319.007812 Z M 157.078125 319.167969 C 156.835938 319.167969 156.636719 318.980469 156.621094 318.738281 C 156.605469 318.488281 156.796875 318.269531 157.050781 318.253906 C 157.261719 318.242188 157.46875 318.226562 157.679688 318.214844 C 158.683594 318.144531 159.695312 318.058594 160.6875 317.964844 C 160.941406 317.941406 161.164062 318.125 161.1875 318.378906 C 161.210938 318.628906 161.027344 318.851562 160.773438 318.878906 C 159.773438 318.972656 158.753906 319.054688 157.746094 319.125 C 157.53125 319.140625 157.320312 319.15625 157.105469 319.167969 C 157.097656 319.167969 157.085938 319.167969 157.078125 319.167969 Z M 152.695312 319.300781 C 151.714844 319.300781 150.71875 319.28125 149.734375 319.242188 C 149.480469 319.234375 149.285156 319.019531 149.296875 318.765625 C 149.304688 318.515625 149.511719 318.324219 149.769531 318.328125 C 150.984375 318.375 152.207031 318.394531 153.410156 318.382812 C 153.667969 318.382812 153.871094 318.582031 153.875 318.835938 C 153.875 319.089844 153.671875 319.296875 153.421875 319.296875 C 153.179688 319.300781 152.9375 319.300781 152.695312 319.300781 " fill-opacity="1" fill-rule="nonzero"/><path fill="#99b9ff" d="M 186.351562 160.332031 C 186.34375 160.332031 186.339844 160.332031 186.332031 160.332031 C 185.140625 160.285156 183.902344 160.269531 182.691406 160.285156 C 182.445312 160.289062 182.230469 160.085938 182.226562 159.835938 C 182.222656 159.582031 182.425781 159.375 182.679688 159.371094 C 183.90625 159.351562 185.160156 159.367188 186.367188 159.414062 C 186.621094 159.425781 186.816406 159.640625 186.808594 159.890625 C 186.796875 160.136719 186.59375 160.332031 186.351562 160.332031 Z M 175.371094 160.746094 C 175.140625 160.746094 174.941406 160.574219 174.914062 160.339844 C 174.886719 160.089844 175.066406 159.863281 175.320312 159.835938 C 176.550781 159.699219 177.789062 159.59375 178.992188 159.515625 C 179.246094 159.5 179.460938 159.691406 179.480469 159.945312 C 179.496094 160.195312 179.304688 160.414062 179.050781 160.429688 C 177.859375 160.503906 176.636719 160.613281 175.417969 160.746094 C 175.402344 160.746094 175.386719 160.746094 175.371094 160.746094 Z M 193.636719 161.066406 C 193.613281 161.066406 193.585938 161.066406 193.5625 161.0625 C 192.394531 160.867188 191.183594 160.703125 189.960938 160.582031 C 189.707031 160.554688 189.523438 160.332031 189.550781 160.082031 C 189.574219 159.828125 189.800781 159.644531 190.050781 159.671875 C 191.296875 159.792969 192.527344 159.960938 193.714844 160.160156 C 193.964844 160.199219 194.132812 160.4375 194.089844 160.6875 C 194.050781 160.910156 193.859375 161.066406 193.636719 161.066406 Z M 168.121094 161.859375 C 167.90625 161.859375 167.714844 161.707031 167.671875 161.488281 C 167.625 161.242188 167.785156 161 168.03125 160.953125 C 169.234375 160.714844 170.457031 160.503906 171.664062 160.316406 C 171.914062 160.277344 172.148438 160.449219 172.1875 160.699219 C 172.222656 160.949219 172.054688 161.183594 171.804688 161.222656 C 170.609375 161.40625 169.398438 161.617188 168.210938 161.851562 C 168.179688 161.855469 168.148438 161.859375 168.121094 161.859375 Z M 200.402344 162.714844 C 200.355469 162.714844 200.308594 162.707031 200.261719 162.691406 C 199.246094 162.359375 198.1875 162.058594 197.117188 161.792969 C 196.871094 161.734375 196.722656 161.484375 196.78125 161.238281 C 196.839844 160.996094 197.089844 160.847656 197.335938 160.90625 C 198.429688 161.175781 199.511719 161.484375 200.546875 161.824219 C 200.789062 161.902344 200.917969 162.160156 200.839844 162.398438 C 200.773438 162.59375 200.597656 162.714844 200.402344 162.714844 Z M 160.996094 163.609375 C 160.804688 163.609375 160.625 163.484375 160.5625 163.292969 C 160.484375 163.050781 160.613281 162.792969 160.855469 162.714844 C 160.910156 162.699219 162.203125 162.285156 164.429688 161.742188 C 164.675781 161.683594 164.925781 161.832031 164.984375 162.078125 C 165.042969 162.324219 164.894531 162.570312 164.648438 162.628906 C 162.453125 163.164062 161.152344 163.582031 161.136719 163.585938 C 161.089844 163.601562 161.042969 163.609375 160.996094 163.609375 " fill-opacity="1" fill-rule="nonzero"/><path fill="#99b9ff" d="M 192.789062 139.035156 C 192.710938 139.035156 192.632812 139.015625 192.558594 138.976562 C 191.488281 138.359375 190.402344 137.8125 189.332031 137.351562 C 189.101562 137.25 188.996094 136.980469 189.09375 136.75 C 189.195312 136.519531 189.464844 136.410156 189.699219 136.511719 C 190.796875 136.988281 191.914062 137.550781 193.015625 138.179688 C 193.238281 138.304688 193.3125 138.585938 193.183594 138.804688 C 193.101562 138.953125 192.945312 139.035156 192.789062 139.035156 Z M 198.773438 143.253906 C 198.667969 143.253906 198.5625 143.21875 198.480469 143.144531 C 197.539062 142.355469 196.574219 141.609375 195.609375 140.925781 C 195.402344 140.78125 195.351562 140.496094 195.5 140.289062 C 195.644531 140.082031 195.933594 140.035156 196.136719 140.179688 C 197.125 140.875 198.109375 141.640625 199.070312 142.445312 C 199.261719 142.609375 199.285156 142.898438 199.125 143.089844 C 199.03125 143.199219 198.90625 143.253906 198.773438 143.253906 Z M 203.984375 148.40625 C 203.851562 148.40625 203.71875 148.347656 203.628906 148.234375 C 203.621094 148.222656 202.726562 147.121094 201.164062 145.589844 C 200.984375 145.410156 200.980469 145.121094 201.160156 144.941406 C 201.335938 144.761719 201.625 144.757812 201.808594 144.933594 C 203.410156 146.511719 204.304688 147.613281 204.34375 147.660156 C 204.5 147.855469 204.472656 148.144531 204.273438 148.304688 C 204.191406 148.371094 204.085938 148.40625 203.984375 148.40625 " fill-opacity="1" fill-rule="nonzero"/><path fill="#5479f7" d="M 297.972656 288.578125 C 297.972656 292.828125 291.507812 302.757812 289.433594 305.839844 C 289.128906 306.289062 288.464844 306.289062 288.164062 305.839844 C 286.085938 302.757812 279.621094 292.828125 279.621094 288.578125 C 279.621094 283.519531 283.730469 279.417969 288.796875 279.417969 C 293.863281 279.417969 297.972656 283.519531 297.972656 288.578125 " fill-opacity="1" fill-rule="nonzero"/><path fill="#ffffff" d="M 292.082031 288.578125 C 292.082031 290.394531 290.609375 291.863281 288.796875 291.863281 C 286.980469 291.863281 285.507812 290.394531 285.507812 288.578125 C 285.507812 286.765625 286.980469 285.296875 288.796875 285.296875 C 290.609375 285.296875 292.082031 286.765625 292.082031 288.578125 " fill-opacity="1" fill-rule="nonzero"/></svg>